<?xml version="1.0" encoding="UTF-8"?><svg width="75.1417mm" height="44.7146mm" viewBox="0 0 284 169" xmlns="http://www.w3.org/2000/svg" xmlns:xlink="http://www.w3.org/1999/xlink"><g fill="none" stroke="black" stroke-width="1" fill-rule="evenodd" stroke-linecap="square" stroke-linejoin="bevel"><g clip-path="none" fill="#ffffff" fill-opacity="1" opacity="1" stroke="none" stroke-opacity="0" transform="matrix(1,0,0,1,0,0)"><path d="M0,0 L284,0 L284,169 L0,169 L0,0 z" fill-rule="evenodd" vector-effect="none"/></g><defs><clipPath id="clip3"><path d="M252,80 L-32,80 L-32,-89 L252,-89 L252,80 z"/></clipPath></defs><g clip-path="url(#clip3)" fill="#000000" fill-opacity="1" opacity="1" stroke="#000000" stroke-linecap="round" stroke-linejoin="miter" stroke-miterlimit="2" stroke-opacity="1" stroke-width="2" transform="matrix(-1,0,0,-1,252,80)"><path d="M5,-5 L0,0 L5,5" fill-rule="evenodd" vector-effect="none"/></g><defs><clipPath id="clip6"><path d="M-252,-73 L32,-73 L32,96 L-252,96 L-252,-73 z"/></clipPath></defs><g clip-path="url(#clip6)" fill="#ffffff" fill-opacity="1" opacity="1" stroke="none" stroke-opacity="0" transform="matrix(1,0,0,1,252,73)"><path d="M7,0 L23,0 C26.866,0 30,3.13401 30,7 C30,10.866 26.866,14 23,14 L7,14 C3.13401,14 0,10.866 0,7 C0,3.13401 3.13401,0 7,0 z" fill-rule="nonzero" vector-effect="none"/></g><defs><clipPath id="clip10"><path d="M-15,-7 L15,-7 L15,7 L-15,7 L-15,-7 z"/></clipPath></defs><g clip-path="url(#clip10)" fill="none" opacity="1" stroke="#000000" stroke-linecap="butt" stroke-linejoin="miter" stroke-miterlimit="2" stroke-opacity="1" stroke-width="1" transform="matrix(1,0,0,1,267,80)"><text fill="#000000" fill-opacity="1" font-family="Liberation Sans" font-size="10" font-style="normal" font-weight="400" stroke="none" textLength="5.54688" x="-2.76562" xml:space="preserve" y="3.5">1</text></g><defs><clipPath id="clip15"><path d="M-252.5,-73.5 L31.5,-73.5 L31.5,95.5 L-252.5,95.5 L-252.5,-73.5 z"/></clipPath></defs><g clip-path="url(#clip15)" fill="none" opacity="1" stroke="#000000" stroke-linecap="butt" stroke-linejoin="miter" stroke-miterlimit="2" stroke-opacity="1" stroke-width="1" transform="matrix(1,0,0,1,252.5,73.5)"><path d="M7,0 L23,0 C26.866,0 30,3.13401 30,7 C30,10.866 26.866,14 23,14 L7,14 C3.13401,14 0,10.866 0,7 C0,3.13401 3.13401,0 7,0 z" fill-rule="nonzero" vector-effect="none"/></g><defs><clipPath id="clip18"><path d="M-267,-89 L17,-89 L17,80 L-267,80 L-267,-89 z"/></clipPath></defs><g clip-path="url(#clip18)" fill="none" opacity="1" stroke="none" stroke-opacity="0" transform="matrix(1,0,0,1,267,89)"><path d="M-3.77344,0 L3.77344,0 L3.77344,17 L-3.77344,17 L-3.77344,0 z" fill-rule="evenodd" vector-effect="none"/></g><defs><clipPath id="clip22"><path d="M0,0 L8,0 L8,17 L0,17 L0,0 z"/></clipPath></defs><g clip-path="url(#clip22)" fill="none" opacity="1" stroke="#000000" stroke-linecap="square" stroke-linejoin="bevel" stroke-opacity="1" stroke-width="1" transform="matrix(1,0,0,1,263.227,89)"><text fill="#000000" fill-opacity="1" font-family="TeX Gyre Heros" font-size="10" font-style="normal" font-weight="400" stroke="none" textLength="5.54688" x="1" xml:space="preserve" y="13">u</text></g><defs><clipPath id="clip30"><path d="M-32,-55 L252,-55 L252,114 L-32,114 L-32,-55 z"/></clipPath></defs><g clip-path="url(#clip30)" fill="#000000" fill-opacity="1" opacity="0.4" stroke="#000000" stroke-linecap="round" stroke-linejoin="miter" stroke-miterlimit="2" stroke-opacity="1" stroke-width="2" transform="matrix(1,0,0,1,32,55)"><path d="M0,-5 L5,0 L0,5" fill-rule="evenodd" vector-effect="none"/></g><defs><clipPath id="clip33"><path d="M-2,-48 L282,-48 L282,121 L-2,121 L-2,-48 z"/></clipPath></defs><g clip-path="url(#clip33)" fill="#ffffff" fill-opacity="1" opacity="0.4" stroke="none" stroke-opacity="0" transform="matrix(1,0,0,1,2,48)"><path d="M7,0 L23,0 C26.866,0 30,3.13401 30,7 C30,10.866 26.866,14 23,14 L7,14 C3.13401,14 0,10.866 0,7 C0,3.13401 3.13401,0 7,0 z" fill-rule="nonzero" vector-effect="none"/></g><defs><clipPath id="clip37"><path d="M-15,-7 L15,-7 L15,7 L-15,7 L-15,-7 z"/></clipPath></defs><g clip-path="url(#clip37)" fill="none" opacity="0.4" stroke="#000000" stroke-linecap="butt" stroke-linejoin="miter" stroke-miterlimit="2" stroke-opacity="1" stroke-width="1" transform="matrix(1,0,0,1,17,55)"><text fill="#000000" fill-opacity="1" font-family="Liberation Sans" font-size="10" font-style="normal" font-weight="400" stroke="none" textLength="5.54688" x="-2.76562" xml:space="preserve" y="3.5">1</text></g><defs><clipPath id="clip42"><path d="M-2.5,-48.5 L281.5,-48.5 L281.5,120.5 L-2.5,120.5 L-2.5,-48.5 z"/></clipPath></defs><g clip-path="url(#clip42)" fill="none" opacity="0.4" stroke="#000000" stroke-linecap="butt" stroke-linejoin="miter" stroke-miterlimit="2" stroke-opacity="1" stroke-width="1" transform="matrix(1,0,0,1,2.5,48.5)"><path d="M7,0 L23,0 C26.866,0 30,3.13401 30,7 C30,10.866 26.866,14 23,14 L7,14 C3.13401,14 0,10.866 0,7 C0,3.13401 3.13401,0 7,0 z" fill-rule="nonzero" vector-effect="none"/></g><defs><clipPath id="clip45"><path d="M-17,-64 L267,-64 L267,105 L-17,105 L-17,-64 z"/></clipPath></defs><g clip-path="url(#clip45)" fill="none" opacity="0.4" stroke="none" stroke-opacity="0" transform="matrix(1,0,0,1,17,64)"><path d="M-3.16406,0 L3.16406,0 L3.16406,17 L-3.16406,17 L-3.16406,0 z" fill-rule="evenodd" vector-effect="none"/></g><defs><clipPath id="clip49"><path d="M0,0 L6,0 L6,17 L0,17 L0,0 z"/></clipPath></defs><g clip-path="url(#clip49)" fill="none" opacity="0.4" stroke="#000000" stroke-linecap="square" stroke-linejoin="bevel" stroke-opacity="1" stroke-width="1" transform="matrix(1,0,0,1,13.8359,64)"><text fill="#000000" fill-opacity="1" font-family="TeX Gyre Heros" font-size="10" font-style="normal" font-weight="400" stroke="none" textLength="3.32812" x="1.5" xml:space="preserve" y="13">r</text></g><defs><clipPath id="clip57"><path d="M-157,-75 L127,-75 L127,94 L-157,94 L-157,-75 z"/></clipPath></defs><g clip-path="url(#clip57)" fill="#000000" fill-opacity="1" opacity="0.4" stroke="#000000" stroke-linecap="round" stroke-linejoin="miter" stroke-miterlimit="2" stroke-opacity="1" stroke-width="2" transform="matrix(1,0,0,1,157,75)"><path d="M0,-5 L5,0 L0,5" fill-rule="evenodd" vector-effect="none"/></g><defs><clipPath id="clip60"><path d="M117,85 L-167,85 L-167,-84 L117,-84 L117,85 z"/></clipPath></defs><g clip-path="url(#clip60)" fill="#000000" fill-opacity="1" opacity="0.4" stroke="#000000" stroke-linecap="round" stroke-linejoin="miter" stroke-miterlimit="2" stroke-opacity="1" stroke-width="2" transform="matrix(-1,0,0,-1,117,85)"><path d="M5,-5 L0,0 L5,5" fill-rule="evenodd" vector-effect="none"/></g><defs><clipPath id="clip63"><path d="M117,65 L-167,65 L-167,-104 L117,-104 L117,65 z"/></clipPath></defs><g clip-path="url(#clip63)" fill="#000000" fill-opacity="1" opacity="0.4" stroke="#000000" stroke-linecap="round" stroke-linejoin="miter" stroke-miterlimit="2" stroke-opacity="1" stroke-width="2" transform="matrix(-1,0,0,-1,117,65)"><path d="M5,-5 L0,0 L5,5" fill-rule="evenodd" vector-effect="none"/></g><defs><clipPath id="clip66"><path d="M-117,-57 L167,-57 L167,112 L-117,112 L-117,-57 z"/></clipPath></defs><g clip-path="url(#clip66)" fill="#ffffff" fill-opacity="1" opacity="0.4" stroke="none" stroke-opacity="0" transform="matrix(1,0,0,1,117,57)"><path d="M0,0 L40,0 L40,36 L0,36 L0,0 z" fill-rule="evenodd" vector-effect="none"/></g><defs><clipPath id="clip70"><path d="M-3,-8 L37,-8 L37,28 L-3,28 L-3,-8 z"/></clipPath></defs><g clip-path="url(#clip70)" fill="none" opacity="0.4" stroke="#000000" stroke-linecap="butt" stroke-linejoin="miter" stroke-miterlimit="2" stroke-opacity="1" stroke-width="1" transform="matrix(1,0,0,1,120,65)"><text fill="#000000" fill-opacity="1" font-family="Liberation Sans" font-size="9" font-style="normal" font-weight="400" stroke="none" textLength="2.98438" x="0" xml:space="preserve" y="3">r</text></g><defs><clipPath id="clip71"><path d="M-3,-28 L37,-28 L37,8 L-3,8 L-3,-28 z"/></clipPath></defs><g clip-path="url(#clip71)" fill="none" opacity="0.4" stroke="#000000" stroke-linecap="butt" stroke-linejoin="miter" stroke-miterlimit="2" stroke-opacity="1" stroke-width="1" transform="matrix(1,0,0,1,120,85)"><text fill="#000000" fill-opacity="1" font-family="Liberation Sans" font-size="9" font-style="normal" font-weight="400" stroke="none" textLength="4.5" x="0" xml:space="preserve" y="3">y</text></g><defs><clipPath id="clip72"><path d="M-37,-18 L3,-18 L3,18 L-37,18 L-37,-18 z"/></clipPath></defs><g clip-path="url(#clip72)" fill="none" opacity="0.4" stroke="#000000" stroke-linecap="butt" stroke-linejoin="miter" stroke-miterlimit="2" stroke-opacity="1" stroke-width="1" transform="matrix(1,0,0,1,154,75)"><text fill="#000000" fill-opacity="1" font-family="Liberation Sans" font-size="9" font-style="normal" font-weight="400" stroke="none" textLength="5" x="-5" xml:space="preserve" y="3">u</text></g><defs><clipPath id="clip77"><path d="M-117.5,-57.5 L166.5,-57.5 L166.5,111.5 L-117.5,111.5 L-117.5,-57.5 z"/></clipPath></defs><g clip-path="url(#clip77)" fill="none" opacity="0.4" stroke="#000000" stroke-linecap="butt" stroke-linejoin="miter" stroke-miterlimit="2" stroke-opacity="1" stroke-width="1" transform="matrix(1,0,0,1,117.5,57.5)"><path d="M0,0 L40,0 L40,36 L0,36 L0,0 z" fill-rule="evenodd" vector-effect="none"/></g><defs><clipPath id="clip80"><path d="M-137,-95 L147,-95 L147,74 L-137,74 L-137,-95 z"/></clipPath></defs><g clip-path="url(#clip80)" fill="none" opacity="0.4" stroke="none" stroke-opacity="0" transform="matrix(1,0,0,1,137,95)"><path d="M-38.3594,0 L38.3594,0 L38.3594,17 L-38.3594,17 L-38.3594,0 z" fill-rule="evenodd" vector-effect="none"/></g><defs><clipPath id="clip84"><path d="M0,0 L77,0 L77,17 L0,17 L0,0 z"/></clipPath></defs><g clip-path="url(#clip84)" fill="none" opacity="0.4" stroke="#000000" stroke-linecap="square" stroke-linejoin="bevel" stroke-opacity="1" stroke-width="1" transform="matrix(1,0,0,1,98.6406,95)"><text fill="#000000" fill-opacity="1" font-family="TeX Gyre Heros" font-size="10" font-style="normal" font-weight="400" stroke="none" textLength="73.7188" x="1.5" xml:space="preserve" y="13">Linear Controller</text></g><defs><clipPath id="clip92"><path d="M-32,-105 L252,-105 L252,64 L-32,64 L-32,-105 z"/></clipPath></defs><g clip-path="url(#clip92)" fill="#000000" fill-opacity="1" opacity="1" stroke="#000000" stroke-linecap="round" stroke-linejoin="miter" stroke-miterlimit="2" stroke-opacity="1" stroke-width="2" transform="matrix(1,0,0,1,32,105)"><path d="M0,-5 L5,0 L0,5" fill-rule="evenodd" vector-effect="none"/></g><defs><clipPath id="clip95"><path d="M-2,-98 L282,-98 L282,71 L-2,71 L-2,-98 z"/></clipPath></defs><g clip-path="url(#clip95)" fill="#ffffff" fill-opacity="1" opacity="1" stroke="none" stroke-opacity="0" transform="matrix(1,0,0,1,2,98)"><path d="M7,0 L23,0 C26.866,0 30,3.13401 30,7 C30,10.866 26.866,14 23,14 L7,14 C3.13401,14 0,10.866 0,7 C0,3.13401 3.13401,0 7,0 z" fill-rule="nonzero" vector-effect="none"/></g><defs><clipPath id="clip99"><path d="M-15,-7 L15,-7 L15,7 L-15,7 L-15,-7 z"/></clipPath></defs><g clip-path="url(#clip99)" fill="none" opacity="1" stroke="#000000" stroke-linecap="butt" stroke-linejoin="miter" stroke-miterlimit="2" stroke-opacity="1" stroke-width="1" transform="matrix(1,0,0,1,17,105)"><text fill="#000000" fill-opacity="1" font-family="Liberation Sans" font-size="10" font-style="normal" font-weight="400" stroke="none" textLength="5.54688" x="-2.76562" xml:space="preserve" y="3.5">2</text></g><defs><clipPath id="clip104"><path d="M-2.5,-98.5 L281.5,-98.5 L281.5,70.5 L-2.5,70.5 L-2.5,-98.5 z"/></clipPath></defs><g clip-path="url(#clip104)" fill="none" opacity="1" stroke="#000000" stroke-linecap="butt" stroke-linejoin="miter" stroke-miterlimit="2" stroke-opacity="1" stroke-width="1" transform="matrix(1,0,0,1,2.5,98.5)"><path d="M7,0 L23,0 C26.866,0 30,3.13401 30,7 C30,10.866 26.866,14 23,14 L7,14 C3.13401,14 0,10.866 0,7 C0,3.13401 3.13401,0 7,0 z" fill-rule="nonzero" vector-effect="none"/></g><defs><clipPath id="clip107"><path d="M-17,-114 L267,-114 L267,55 L-17,55 L-17,-114 z"/></clipPath></defs><g clip-path="url(#clip107)" fill="none" opacity="1" stroke="none" stroke-opacity="0" transform="matrix(1,0,0,1,17,114)"><path d="M-3.5,0 L3.5,0 L3.5,17 L-3.5,17 L-3.5,0 z" fill-rule="evenodd" vector-effect="none"/></g><defs><clipPath id="clip111"><path d="M0,0 L7,0 L7,17 L0,17 L0,0 z"/></clipPath></defs><g clip-path="url(#clip111)" fill="none" opacity="1" stroke="#000000" stroke-linecap="square" stroke-linejoin="bevel" stroke-opacity="1" stroke-width="1" transform="matrix(1,0,0,1,13.5,114)"><text fill="#000000" fill-opacity="1" font-family="TeX Gyre Heros" font-size="10" font-style="normal" font-weight="400" stroke="none" textLength="5" x="1" xml:space="preserve" y="13">y</text></g><defs><clipPath id="clip119"><path d="M-157,-20 L127,-20 L127,149 L-157,149 L-157,-20 z"/></clipPath></defs><g clip-path="url(#clip119)" fill="#000000" fill-opacity="1" opacity="1" stroke="#000000" stroke-linecap="round" stroke-linejoin="miter" stroke-miterlimit="2" stroke-opacity="1" stroke-width="2" transform="matrix(1,0,0,1,157,20)"><path d="M0,-5 L5,0 L0,5" fill-rule="evenodd" vector-effect="none"/></g><defs><clipPath id="clip122"><path d="M117,20 L-167,20 L-167,-149 L117,-149 L117,20 z"/></clipPath></defs><g clip-path="url(#clip122)" fill="#000000" fill-opacity="1" opacity="1" stroke="#000000" stroke-linecap="round" stroke-linejoin="miter" stroke-miterlimit="2" stroke-opacity="1" stroke-width="2" transform="matrix(-1,0,0,-1,117,20)"><path d="M5,-5 L0,0 L5,5" fill-rule="evenodd" vector-effect="none"/></g><defs><clipPath id="clip125"><path d="M-117,-2 L167,-2 L167,167 L-117,167 L-117,-2 z"/></clipPath></defs><g clip-path="url(#clip125)" fill="#ffffff" fill-opacity="1" opacity="1" stroke="none" stroke-opacity="0" transform="matrix(1,0,0,1,117,2)"><path d="M0,0 L40,0 L40,36 L0,36 L0,0 z" fill-rule="evenodd" vector-effect="none"/></g><defs><clipPath id="clip129"><path d="M-3,-18 L37,-18 L37,18 L-3,18 L-3,-18 z"/></clipPath></defs><g clip-path="url(#clip129)" fill="none" opacity="1" stroke="#000000" stroke-linecap="butt" stroke-linejoin="miter" stroke-miterlimit="2" stroke-opacity="1" stroke-width="1" transform="matrix(1,0,0,1,120,20)"><text fill="#000000" fill-opacity="1" font-family="Liberation Sans" font-size="9" font-style="normal" font-weight="400" stroke="none" textLength="4.5" x="0" xml:space="preserve" y="3">y</text></g><defs><clipPath id="clip130"><path d="M-37,-18 L3,-18 L3,18 L-37,18 L-37,-18 z"/></clipPath></defs><g clip-path="url(#clip130)" fill="none" opacity="1" stroke="#000000" stroke-linecap="butt" stroke-linejoin="miter" stroke-miterlimit="2" stroke-opacity="1" stroke-width="1" transform="matrix(1,0,0,1,154,20)"><text fill="#000000" fill-opacity="1" font-family="Liberation Sans" font-size="9" font-style="normal" font-weight="400" stroke="none" textLength="5" x="-5" xml:space="preserve" y="3">u</text></g><defs><clipPath id="clip135"><path d="M-117.5,-2.5 L166.5,-2.5 L166.5,166.5 L-117.5,166.5 L-117.5,-2.5 z"/></clipPath></defs><g clip-path="url(#clip135)" fill="none" opacity="1" stroke="#000000" stroke-linecap="butt" stroke-linejoin="miter" stroke-miterlimit="2" stroke-opacity="1" stroke-width="1" transform="matrix(1,0,0,1,117.5,2.5)"><path d="M0,0 L40,0 L40,36 L0,36 L0,0 z" fill-rule="evenodd" vector-effect="none"/></g><defs><clipPath id="clip138"><path d="M-137,-40 L147,-40 L147,129 L-137,129 L-137,-40 z"/></clipPath></defs><g clip-path="url(#clip138)" fill="none" opacity="1" stroke="none" stroke-opacity="0" transform="matrix(1,0,0,1,137,40)"><path d="M-15.1484,0 L15.1484,0 L15.1484,17 L-15.1484,17 L-15.1484,0 z" fill-rule="evenodd" vector-effect="none"/></g><defs><clipPath id="clip142"><path d="M0,0 L30,0 L30,17 L0,17 L0,0 z"/></clipPath></defs><g clip-path="url(#clip142)" fill="none" opacity="1" stroke="#000000" stroke-linecap="square" stroke-linejoin="bevel" stroke-opacity="1" stroke-width="1" transform="matrix(1,0,0,1,121.852,40)"><text fill="#000000" fill-opacity="1" font-family="TeX Gyre Heros" font-size="10" font-style="normal" font-weight="400" stroke="none" textLength="28.2969" x="1" xml:space="preserve" y="13">Empty</text></g><defs><clipPath id="clip150"><path d="M117,140 L-167,140 L-167,-29 L117,-29 L117,140 z"/></clipPath></defs><g clip-path="url(#clip150)" fill="#000000" fill-opacity="1" opacity="0.4" stroke="#000000" stroke-linecap="round" stroke-linejoin="miter" stroke-miterlimit="2" stroke-opacity="1" stroke-width="2" transform="matrix(-1,0,0,-1,117,140)"><path d="M5,-5 L0,0 L5,5" fill-rule="evenodd" vector-effect="none"/></g><defs><clipPath id="clip153"><path d="M-157,-130 L127,-130 L127,39 L-157,39 L-157,-130 z"/></clipPath></defs><g clip-path="url(#clip153)" fill="#000000" fill-opacity="1" opacity="0.4" stroke="#000000" stroke-linecap="round" stroke-linejoin="miter" stroke-miterlimit="2" stroke-opacity="1" stroke-width="2" transform="matrix(1,0,0,1,157,130)"><path d="M0,-5 L5,0 L0,5" fill-rule="evenodd" vector-effect="none"/></g><defs><clipPath id="clip156"><path d="M117,120 L-167,120 L-167,-49 L117,-49 L117,120 z"/></clipPath></defs><g clip-path="url(#clip156)" fill="#000000" fill-opacity="1" opacity="0.4" stroke="#000000" stroke-linecap="round" stroke-linejoin="miter" stroke-miterlimit="2" stroke-opacity="1" stroke-width="2" transform="matrix(-1,0,0,-1,117,120)"><path d="M5,-5 L0,0 L5,5" fill-rule="evenodd" vector-effect="none"/></g><defs><clipPath id="clip159"><path d="M-117,-112 L167,-112 L167,57 L-117,57 L-117,-112 z"/></clipPath></defs><g clip-path="url(#clip159)" fill="#ffffff" fill-opacity="1" opacity="0.4" stroke="none" stroke-opacity="0" transform="matrix(1,0,0,1,117,112)"><path d="M0,0 L40,0 L40,36 L0,36 L0,0 z" fill-rule="evenodd" vector-effect="none"/></g><defs><clipPath id="clip163"><path d="M-3,-8 L37,-8 L37,28 L-3,28 L-3,-8 z"/></clipPath></defs><g clip-path="url(#clip163)" fill="none" opacity="0.4" stroke="#000000" stroke-linecap="butt" stroke-linejoin="miter" stroke-miterlimit="2" stroke-opacity="1" stroke-width="1" transform="matrix(1,0,0,1,120,120)"><text fill="#000000" fill-opacity="1" font-family="Liberation Sans" font-size="9" font-style="normal" font-weight="400" stroke="none" textLength="2.98438" x="0" xml:space="preserve" y="3">r</text></g><defs><clipPath id="clip164"><path d="M-3,-28 L37,-28 L37,8 L-3,8 L-3,-28 z"/></clipPath></defs><g clip-path="url(#clip164)" fill="none" opacity="0.4" stroke="#000000" stroke-linecap="butt" stroke-linejoin="miter" stroke-miterlimit="2" stroke-opacity="1" stroke-width="1" transform="matrix(1,0,0,1,120,140)"><text fill="#000000" fill-opacity="1" font-family="Liberation Sans" font-size="9" font-style="normal" font-weight="400" stroke="none" textLength="4.5" x="0" xml:space="preserve" y="3">y</text></g><defs><clipPath id="clip165"><path d="M-37,-18 L3,-18 L3,18 L-37,18 L-37,-18 z"/></clipPath></defs><g clip-path="url(#clip165)" fill="none" opacity="0.4" stroke="#000000" stroke-linecap="butt" stroke-linejoin="miter" stroke-miterlimit="2" stroke-opacity="1" stroke-width="1" transform="matrix(1,0,0,1,154,130)"><text fill="#000000" fill-opacity="1" font-family="Liberation Sans" font-size="9" font-style="normal" font-weight="400" stroke="none" textLength="5" x="-5" xml:space="preserve" y="3">u</text></g><defs><clipPath id="clip170"><path d="M-117.5,-112.5 L166.5,-112.5 L166.5,56.5 L-117.5,56.5 L-117.5,-112.5 z"/></clipPath></defs><g clip-path="url(#clip170)" fill="none" opacity="0.4" stroke="#000000" stroke-linecap="butt" stroke-linejoin="miter" stroke-miterlimit="2" stroke-opacity="1" stroke-width="1" transform="matrix(1,0,0,1,117.5,112.5)"><path d="M0,0 L40,0 L40,36 L0,36 L0,0 z" fill-rule="evenodd" vector-effect="none"/></g><defs><clipPath id="clip173"><path d="M-137,-150 L147,-150 L147,19 L-137,19 L-137,-150 z"/></clipPath></defs><g clip-path="url(#clip173)" fill="none" opacity="0.4" stroke="none" stroke-opacity="0" transform="matrix(1,0,0,1,137,150)"><path d="M-45.8516,0 L45.8516,0 L45.8516,17 L-45.8516,17 L-45.8516,0 z" fill-rule="evenodd" vector-effect="none"/></g><defs><clipPath id="clip177"><path d="M0,0 L92,0 L92,17 L0,17 L0,0 z"/></clipPath></defs><g clip-path="url(#clip177)" fill="none" opacity="0.4" stroke="#000000" stroke-linecap="square" stroke-linejoin="bevel" stroke-opacity="1" stroke-width="1" transform="matrix(1,0,0,1,91.1484,150)"><text fill="#000000" fill-opacity="1" font-family="TeX Gyre Heros" font-size="10" font-style="normal" font-weight="400" stroke="none" textLength="88.7031" x="1.5" xml:space="preserve" y="13">Nonlinear Controller</text></g></g></svg>
