<?xml version="1.0" encoding="utf-8" standalone="no"?>
<!DOCTYPE svg PUBLIC "-//W3C//DTD SVG 1.1//EN"
  "http://www.w3.org/Graphics/SVG/1.1/DTD/svg11.dtd">
<!-- Created with matplotlib (http://matplotlib.org/) -->
<svg height="345pt" version="1.1" viewBox="0 0 460 345" width="460pt" xmlns="http://www.w3.org/2000/svg" xmlns:xlink="http://www.w3.org/1999/xlink">
 <defs>
  <style type="text/css">
*{stroke-linecap:butt;stroke-linejoin:round;}
  </style>
 </defs>
 <g id="figure_1">
  <g id="patch_1">
   <path d="M 0 345.6 
L 460.8 345.6 
L 460.8 0 
L 0 0 
z
" style="fill:#ffffff;"/>
  </g>
  <g id="axes_1">
   <g id="patch_2">
    <path d="M 57.6 307.584 
L 414.72 307.584 
L 414.72 41.472 
L 57.6 41.472 
z
" style="fill:#ffffff;"/>
   </g>
   <g id="PolyCollection_1">
    <path clip-path="url(#pac3b898fe2)" d="M 57.6 307.584 
L 57.6 114.048 
L 58.31424 114.048 
L 59.02848 114.048 
L 59.74272 114.048 
L 60.45696 114.048 
L 61.1712 114.048 
L 61.88544 114.048 
L 62.59968 114.048 
L 63.31392 114.048 
L 64.02816 114.048 
L 64.7424 114.048 
L 65.45664 114.048 
L 66.17088 114.048 
L 66.88512 114.048 
L 67.59936 114.048 
L 68.3136 114.048 
L 69.02784 114.048 
L 69.74208 114.048 
L 70.45632 114.048 
L 71.17056 114.048 
L 71.8848 114.048 
L 72.59904 114.048 
L 73.31328 114.048 
L 74.02752 114.048 
L 74.74176 114.048 
L 75.456 114.048 
L 76.17024 114.048 
L 76.88448 114.048 
L 77.59872 114.048 
L 78.31296 114.048 
L 79.0272 114.048 
L 79.74144 114.048 
L 80.45568 114.048 
L 81.16992 114.048 
L 81.88416 114.048 
L 82.5984 114.048 
L 83.31264 114.048 
L 84.02688 114.048 
L 84.74112 114.048 
L 85.45536 114.048 
L 86.1696 114.048 
L 86.88384 114.048 
L 87.59808 114.048 
L 88.31232 114.048 
L 89.02656 114.048 
L 89.7408 114.048 
L 89.853148 114.048 
L 89.853148 114.048 
L 89.853148 114.048 
L 89.853148 114.048 
L 90.45504 114.048 
L 91.16928 114.048 
L 91.88352 114.048 
L 92.59776 114.048 
L 93.312 114.048 
L 94.02624 114.048 
L 94.74048 114.048 
L 95.45472 114.048 
L 96.16896 114.048 
L 96.8832 114.048 
L 97.59744 114.048 
L 98.31168 114.048 
L 99.02592 114.048 
L 99.74016 114.048 
L 100.4544 114.048 
L 101.16864 114.048 
L 101.88288 114.048 
L 102.59712 114.048 
L 103.31136 114.048 
L 104.0256 114.048 
L 104.73984 114.048 
L 105.45408 114.048 
L 106.16832 114.048 
L 106.88256 114.048 
L 107.5968 114.048 
L 108.31104 114.048 
L 109.02528 114.048 
L 109.73952 114.048 
L 110.45376 114.048 
L 111.168 114.048 
L 111.88224 114.048 
L 112.59648 114.048 
L 113.31072 114.048 
L 114.02496 114.048 
L 114.7392 114.048 
L 115.45344 114.048 
L 116.16768 114.048 
L 116.88192 114.048 
L 117.59616 114.048 
L 118.3104 114.048 
L 119.02464 114.048 
L 119.73888 114.048 
L 120.45312 114.048 
L 121.16736 114.048 
L 121.8816 114.048 
L 122.59584 114.048 
L 123.31008 114.048 
L 124.02432 114.048 
L 124.73856 114.048 
L 125.4528 114.048 
L 126.16704 114.048 
L 126.88128 114.048 
L 127.59552 114.048 
L 128.30976 114.048 
L 129.024 114.048 
L 129.024 162.432 
L 129.73824 162.432 
L 130.45248 162.432 
L 131.16672 162.432 
L 131.88096 162.432 
L 132.5952 162.432 
L 133.30944 162.432 
L 134.02368 162.432 
L 134.73792 162.432 
L 135.45216 162.432 
L 136.1664 162.432 
L 136.88064 162.432 
L 137.59488 162.432 
L 138.30912 162.432 
L 139.02336 162.432 
L 139.7376 162.432 
L 140.45184 162.432 
L 141.16608 162.432 
L 141.88032 162.432 
L 142.59456 162.432 
L 143.3088 162.432 
L 144.02304 162.432 
L 144.73728 162.432 
L 145.45152 162.432 
L 146.16576 162.432 
L 146.88 162.432 
L 147.59424 162.432 
L 148.30848 162.432 
L 149.02272 162.432 
L 149.73696 162.432 
L 150.4512 162.432 
L 151.16544 162.432 
L 151.87968 162.432 
L 152.59392 162.432 
L 153.30816 162.432 
L 154.0224 162.432 
L 154.73664 162.432 
L 155.45088 162.432 
L 156.16512 162.432 
L 156.87936 162.432 
L 156.937828 162.432 
L 156.937828 162.432 
L 156.937828 162.432 
L 156.937828 162.432 
L 157.5936 162.432 
L 158.30784 162.432 
L 159.02208 162.432 
L 159.73632 162.432 
L 160.45056 162.432 
L 161.1648 162.432 
L 161.87904 162.432 
L 162.59328 162.432 
L 163.30752 162.432 
L 164.02176 162.432 
L 164.736 162.432 
L 165.45024 162.432 
L 166.16448 162.432 
L 166.87872 162.432 
L 167.59296 162.432 
L 168.3072 162.432 
L 169.02144 162.432 
L 169.73568 162.432 
L 170.44992 162.432 
L 171.16416 162.432 
L 171.8784 162.432 
L 172.59264 162.432 
L 173.30688 162.432 
L 174.02112 162.432 
L 174.73536 162.432 
L 175.4496 162.432 
L 176.16384 162.432 
L 176.87808 162.432 
L 177.59232 162.432 
L 178.30656 162.432 
L 179.0208 162.432 
L 179.73504 162.432 
L 180.44928 162.432 
L 181.16352 162.432 
L 181.87776 162.432 
L 182.592 162.432 
L 183.30624 162.432 
L 184.02048 162.432 
L 184.73472 162.432 
L 185.44896 162.432 
L 186.1632 162.432 
L 186.87744 162.432 
L 187.59168 162.432 
L 188.30592 162.432 
L 189.02016 162.432 
L 189.7344 162.432 
L 190.44864 162.432 
L 191.16288 162.432 
L 191.87712 162.432 
L 192.59136 162.432 
L 193.3056 162.432 
L 194.01984 162.432 
L 194.73408 162.432 
L 195.44832 162.432 
L 196.16256 162.432 
L 196.8768 162.432 
L 197.59104 162.432 
L 198.30528 162.432 
L 199.01952 162.432 
L 199.73376 162.432 
L 200.448 162.432 
L 200.448 210.816 
L 201.16224 210.816 
L 201.87648 210.816 
L 202.59072 210.816 
L 203.30496 210.816 
L 204.0192 210.816 
L 204.73344 210.816 
L 205.44768 210.816 
L 206.16192 210.816 
L 206.87616 210.816 
L 207.5904 210.816 
L 208.30464 210.816 
L 209.01888 210.816 
L 209.73312 210.816 
L 210.44736 210.816 
L 211.1616 210.816 
L 211.87584 210.816 
L 212.59008 210.816 
L 213.30432 210.816 
L 214.01856 210.816 
L 214.7328 210.816 
L 215.44704 210.816 
L 216.16128 210.816 
L 216.87552 210.816 
L 217.58976 210.816 
L 218.304 210.816 
L 219.01824 210.816 
L 219.73248 210.816 
L 220.44672 210.816 
L 221.16096 210.816 
L 221.8752 210.816 
L 222.58944 210.816 
L 223.30368 210.816 
L 224.01792 210.816 
L 224.73216 210.816 
L 225.4464 210.816 
L 226.16064 210.816 
L 226.87488 210.816 
L 227.58912 210.816 
L 228.30336 210.816 
L 229.0176 210.816 
L 229.73184 210.816 
L 230.44608 210.816 
L 231.16032 210.816 
L 231.87456 210.816 
L 232.5888 210.816 
L 233.30304 210.816 
L 234.01728 210.816 
L 234.73152 210.816 
L 235.44576 210.816 
L 236.109752 210.816 
L 236.109752 210.816 
L 236.109752 210.816 
L 236.109752 210.816 
L 236.16 210.816 
L 236.87424 210.816 
L 237.58848 210.816 
L 238.30272 210.816 
L 239.01696 210.816 
L 239.7312 210.816 
L 240.44544 210.816 
L 241.15968 210.816 
L 241.87392 210.816 
L 242.58816 210.816 
L 243.3024 210.816 
L 244.01664 210.816 
L 244.73088 210.816 
L 245.44512 210.816 
L 246.15936 210.816 
L 246.8736 210.816 
L 247.58784 210.816 
L 248.30208 210.816 
L 249.01632 210.816 
L 249.73056 210.816 
L 250.4448 210.816 
L 251.15904 210.816 
L 251.87328 210.816 
L 252.58752 210.816 
L 253.30176 210.816 
L 254.016 210.816 
L 254.73024 210.816 
L 255.44448 210.816 
L 256.15872 210.816 
L 256.87296 210.816 
L 257.5872 210.816 
L 258.30144 210.816 
L 259.01568 210.816 
L 259.72992 210.816 
L 260.44416 210.816 
L 261.1584 210.816 
L 261.87264 210.816 
L 262.58688 210.816 
L 263.30112 210.816 
L 264.01536 210.816 
L 264.7296 210.816 
L 265.44384 210.816 
L 266.15808 210.816 
L 266.87232 210.816 
L 267.58656 210.816 
L 268.3008 210.816 
L 269.01504 210.816 
L 269.72928 210.816 
L 270.44352 210.816 
L 271.15776 210.816 
L 271.872 210.816 
L 271.872 259.2 
L 272.58624 259.2 
L 273.30048 259.2 
L 274.01472 259.2 
L 274.72896 259.2 
L 275.4432 259.2 
L 276.15744 259.2 
L 276.87168 259.2 
L 277.58592 259.2 
L 278.30016 259.2 
L 279.0144 259.2 
L 279.72864 259.2 
L 280.44288 259.2 
L 281.15712 259.2 
L 281.87136 259.2 
L 282.5856 259.2 
L 283.29984 259.2 
L 284.01408 259.2 
L 284.72832 259.2 
L 285.44256 259.2 
L 286.1568 259.2 
L 286.87104 259.2 
L 287.58528 259.2 
L 288.29952 259.2 
L 289.01376 259.2 
L 289.728 259.2 
L 290.44224 259.2 
L 291.15648 259.2 
L 291.87072 259.2 
L 292.58496 259.2 
L 293.2992 259.2 
L 294.01344 259.2 
L 294.72768 259.2 
L 295.44192 259.2 
L 296.15616 259.2 
L 296.8704 259.2 
L 297.58464 259.2 
L 298.29888 259.2 
L 299.01312 259.2 
L 299.72736 259.2 
L 300.4416 259.2 
L 301.15584 259.2 
L 301.87008 259.2 
L 302.58432 259.2 
L 303.29856 259.2 
L 304.0128 259.2 
L 304.72704 259.2 
L 305.44128 259.2 
L 306.15552 259.2 
L 306.86976 259.2 
L 307.584 259.2 
L 308.29824 259.2 
L 309.01248 259.2 
L 309.72672 259.2 
L 310.44096 259.2 
L 311.1552 259.2 
L 311.86944 259.2 
L 312.58368 259.2 
L 313.29792 259.2 
L 314.01216 259.2 
L 314.7264 259.2 
L 315.44064 259.2 
L 316.15488 259.2 
L 316.86912 259.2 
L 317.58336 259.2 
L 318.2976 259.2 
L 319.01184 259.2 
L 319.72608 259.2 
L 320.44032 259.2 
L 321.15456 259.2 
L 321.8688 259.2 
L 322.039153 259.2 
L 322.039153 259.2 
L 322.039153 259.2 
L 322.039153 259.2 
L 322.58304 259.2 
L 323.29728 259.2 
L 324.01152 259.2 
L 324.72576 259.2 
L 325.44 259.2 
L 326.15424 259.2 
L 326.86848 259.2 
L 327.58272 259.2 
L 328.29696 259.2 
L 329.0112 259.2 
L 329.72544 259.2 
L 330.43968 259.2 
L 331.15392 259.2 
L 331.86816 259.2 
L 332.5824 259.2 
L 333.29664 259.2 
L 334.01088 259.2 
L 334.72512 259.2 
L 335.43936 259.2 
L 336.1536 259.2 
L 336.86784 259.2 
L 337.58208 259.2 
L 338.29632 259.2 
L 339.01056 259.2 
L 339.7248 259.2 
L 340.43904 259.2 
L 341.15328 259.2 
L 341.86752 259.2 
L 342.58176 259.2 
L 343.296 259.2 
L 343.296 307.584 
L 344.01024 307.584 
L 344.72448 307.584 
L 345.43872 307.584 
L 346.15296 307.584 
L 346.8672 307.584 
L 347.58144 307.584 
L 348.29568 307.584 
L 349.00992 307.584 
L 349.72416 307.584 
L 350.4384 307.584 
L 351.15264 307.584 
L 351.86688 307.584 
L 352.58112 307.584 
L 353.29536 307.584 
L 354.0096 307.584 
L 354.72384 307.584 
L 355.43808 307.584 
L 356.15232 307.584 
L 356.86656 307.584 
L 357.5808 307.584 
L 358.29504 307.584 
L 359.00928 307.584 
L 359.72352 307.584 
L 360.43776 307.584 
L 361.152 307.584 
L 361.86624 307.584 
L 362.58048 307.584 
L 363.29472 307.584 
L 364.00896 307.584 
L 364.7232 307.584 
L 365.43744 307.584 
L 366.15168 307.584 
L 366.86592 307.584 
L 367.58016 307.584 
L 368.2944 307.584 
L 369.00864 307.584 
L 369.72288 307.584 
L 370.43712 307.584 
L 371.15136 307.584 
L 371.8656 307.584 
L 372.57984 307.584 
L 373.29408 307.584 
L 374.00832 307.584 
L 374.72256 307.584 
L 375.4368 307.584 
L 376.15104 307.584 
L 376.86528 307.584 
L 377.57952 307.584 
L 378.29376 307.584 
L 379.008 307.584 
L 379.72224 307.584 
L 380.43648 307.584 
L 381.15072 307.584 
L 381.86496 307.584 
L 382.5792 307.584 
L 383.29344 307.584 
L 384.00768 307.584 
L 384.72192 307.584 
L 385.43616 307.584 
L 386.1504 307.584 
L 386.86464 307.584 
L 387.57888 307.584 
L 388.29312 307.584 
L 389.00736 307.584 
L 389.7216 307.584 
L 390.43584 307.584 
L 391.15008 307.584 
L 391.86432 307.584 
L 392.57856 307.584 
L 393.2928 307.584 
L 394.00704 307.584 
L 394.72128 307.584 
L 395.43552 307.584 
L 396.14976 307.584 
L 396.864 307.584 
L 397.57824 307.584 
L 398.29248 307.584 
L 399.00672 307.584 
L 399.72096 307.584 
L 400.4352 307.584 
L 401.14944 307.584 
L 401.86368 307.584 
L 402.57792 307.584 
L 403.29216 307.584 
L 404.0064 307.584 
L 404.72064 307.584 
L 405.43488 307.584 
L 406.14912 307.584 
L 406.86336 307.584 
L 407.5776 307.584 
L 408.29184 307.584 
L 409.00608 307.584 
L 409.72032 307.584 
L 410.43456 307.584 
L 411.1488 307.584 
L 411.86304 307.584 
L 412.013745 307.584 
L 412.013745 307.584 
L 412.013745 307.584 
L 412.013745 307.584 
L 412.57728 307.584 
L 413.29152 307.584 
L 414.00576 307.584 
L 414.72 307.584 
L 414.72 307.584 
L 414.72 307.584 
L 414.72 307.584 
L 414.72 307.584 
L 414.00576 307.584 
L 413.29152 307.584 
L 412.57728 307.584 
L 412.013745 307.584 
L 412.013745 307.584 
L 412.013745 307.584 
L 412.013745 307.584 
L 411.86304 307.584 
L 411.1488 307.584 
L 410.43456 307.584 
L 409.72032 307.584 
L 409.00608 307.584 
L 408.29184 307.584 
L 407.5776 307.584 
L 406.86336 307.584 
L 406.14912 307.584 
L 405.43488 307.584 
L 404.72064 307.584 
L 404.0064 307.584 
L 403.29216 307.584 
L 402.57792 307.584 
L 401.86368 307.584 
L 401.14944 307.584 
L 400.4352 307.584 
L 399.72096 307.584 
L 399.00672 307.584 
L 398.29248 307.584 
L 397.57824 307.584 
L 396.864 307.584 
L 396.14976 307.584 
L 395.43552 307.584 
L 394.72128 307.584 
L 394.00704 307.584 
L 393.2928 307.584 
L 392.57856 307.584 
L 391.86432 307.584 
L 391.15008 307.584 
L 390.43584 307.584 
L 389.7216 307.584 
L 389.00736 307.584 
L 388.29312 307.584 
L 387.57888 307.584 
L 386.86464 307.584 
L 386.1504 307.584 
L 385.43616 307.584 
L 384.72192 307.584 
L 384.00768 307.584 
L 383.29344 307.584 
L 382.5792 307.584 
L 381.86496 307.584 
L 381.15072 307.584 
L 380.43648 307.584 
L 379.72224 307.584 
L 379.008 307.584 
L 378.29376 307.584 
L 377.57952 307.584 
L 376.86528 307.584 
L 376.15104 307.584 
L 375.4368 307.584 
L 374.72256 307.584 
L 374.00832 307.584 
L 373.29408 307.584 
L 372.57984 307.584 
L 371.8656 307.584 
L 371.15136 307.584 
L 370.43712 307.584 
L 369.72288 307.584 
L 369.00864 307.584 
L 368.2944 307.584 
L 367.58016 307.584 
L 366.86592 307.584 
L 366.15168 307.584 
L 365.43744 307.584 
L 364.7232 307.584 
L 364.00896 307.584 
L 363.29472 307.584 
L 362.58048 307.584 
L 361.86624 307.584 
L 361.152 307.584 
L 360.43776 307.584 
L 359.72352 307.584 
L 359.00928 307.584 
L 358.29504 307.584 
L 357.5808 307.584 
L 356.86656 307.584 
L 356.15232 307.584 
L 355.43808 307.584 
L 354.72384 307.584 
L 354.0096 307.584 
L 353.29536 307.584 
L 352.58112 307.584 
L 351.86688 307.584 
L 351.15264 307.584 
L 350.4384 307.584 
L 349.72416 307.584 
L 349.00992 307.584 
L 348.29568 307.584 
L 347.58144 307.584 
L 346.8672 307.584 
L 346.15296 307.584 
L 345.43872 307.584 
L 344.72448 307.584 
L 344.01024 307.584 
L 343.296 307.584 
L 343.296 307.584 
L 342.58176 307.584 
L 341.86752 307.584 
L 341.15328 307.584 
L 340.43904 307.584 
L 339.7248 307.584 
L 339.01056 307.584 
L 338.29632 307.584 
L 337.58208 307.584 
L 336.86784 307.584 
L 336.1536 307.584 
L 335.43936 307.584 
L 334.72512 307.584 
L 334.01088 307.584 
L 333.29664 307.584 
L 332.5824 307.584 
L 331.86816 307.584 
L 331.15392 307.584 
L 330.43968 307.584 
L 329.72544 307.584 
L 329.0112 307.584 
L 328.29696 307.584 
L 327.58272 307.584 
L 326.86848 307.584 
L 326.15424 307.584 
L 325.44 307.584 
L 324.72576 307.584 
L 324.01152 307.584 
L 323.29728 307.584 
L 322.58304 307.584 
L 322.039153 307.584 
L 322.039153 307.584 
L 322.039153 307.584 
L 322.039153 307.584 
L 321.8688 307.584 
L 321.15456 307.584 
L 320.44032 307.584 
L 319.72608 307.584 
L 319.01184 307.584 
L 318.2976 307.584 
L 317.58336 307.584 
L 316.86912 307.584 
L 316.15488 307.584 
L 315.44064 307.584 
L 314.7264 307.584 
L 314.01216 307.584 
L 313.29792 307.584 
L 312.58368 307.584 
L 311.86944 307.584 
L 311.1552 307.584 
L 310.44096 307.584 
L 309.72672 307.584 
L 309.01248 307.584 
L 308.29824 307.584 
L 307.584 307.584 
L 306.86976 307.584 
L 306.15552 307.584 
L 305.44128 307.584 
L 304.72704 307.584 
L 304.0128 307.584 
L 303.29856 307.584 
L 302.58432 307.584 
L 301.87008 307.584 
L 301.15584 307.584 
L 300.4416 307.584 
L 299.72736 307.584 
L 299.01312 307.584 
L 298.29888 307.584 
L 297.58464 307.584 
L 296.8704 307.584 
L 296.15616 307.584 
L 295.44192 307.584 
L 294.72768 307.584 
L 294.01344 307.584 
L 293.2992 307.584 
L 292.58496 307.584 
L 291.87072 307.584 
L 291.15648 307.584 
L 290.44224 307.584 
L 289.728 307.584 
L 289.01376 307.584 
L 288.29952 307.584 
L 287.58528 307.584 
L 286.87104 307.584 
L 286.1568 307.584 
L 285.44256 307.584 
L 284.72832 307.584 
L 284.01408 307.584 
L 283.29984 307.584 
L 282.5856 307.584 
L 281.87136 307.584 
L 281.15712 307.584 
L 280.44288 307.584 
L 279.72864 307.584 
L 279.0144 307.584 
L 278.30016 307.584 
L 277.58592 307.584 
L 276.87168 307.584 
L 276.15744 307.584 
L 275.4432 307.584 
L 274.72896 307.584 
L 274.01472 307.584 
L 273.30048 307.584 
L 272.58624 307.584 
L 271.872 307.584 
L 271.872 307.584 
L 271.15776 307.584 
L 270.44352 307.584 
L 269.72928 307.584 
L 269.01504 307.584 
L 268.3008 307.584 
L 267.58656 307.584 
L 266.87232 307.584 
L 266.15808 307.584 
L 265.44384 307.584 
L 264.7296 307.584 
L 264.01536 307.584 
L 263.30112 307.584 
L 262.58688 307.584 
L 261.87264 307.584 
L 261.1584 307.584 
L 260.44416 307.584 
L 259.72992 307.584 
L 259.01568 307.584 
L 258.30144 307.584 
L 257.5872 307.584 
L 256.87296 307.584 
L 256.15872 307.584 
L 255.44448 307.584 
L 254.73024 307.584 
L 254.016 307.584 
L 253.30176 307.584 
L 252.58752 307.584 
L 251.87328 307.584 
L 251.15904 307.584 
L 250.4448 307.584 
L 249.73056 307.584 
L 249.01632 307.584 
L 248.30208 307.584 
L 247.58784 307.584 
L 246.8736 307.584 
L 246.15936 307.584 
L 245.44512 307.584 
L 244.73088 307.584 
L 244.01664 307.584 
L 243.3024 307.584 
L 242.58816 307.584 
L 241.87392 307.584 
L 241.15968 307.584 
L 240.44544 307.584 
L 239.7312 307.584 
L 239.01696 307.584 
L 238.30272 307.584 
L 237.58848 307.584 
L 236.87424 307.584 
L 236.16 307.584 
L 236.109752 307.584 
L 236.109752 307.584 
L 236.109752 307.584 
L 236.109752 307.584 
L 235.44576 307.584 
L 234.73152 307.584 
L 234.01728 307.584 
L 233.30304 307.584 
L 232.5888 307.584 
L 231.87456 307.584 
L 231.16032 307.584 
L 230.44608 307.584 
L 229.73184 307.584 
L 229.0176 307.584 
L 228.30336 307.584 
L 227.58912 307.584 
L 226.87488 307.584 
L 226.16064 307.584 
L 225.4464 307.584 
L 224.73216 307.584 
L 224.01792 307.584 
L 223.30368 307.584 
L 222.58944 307.584 
L 221.8752 307.584 
L 221.16096 307.584 
L 220.44672 307.584 
L 219.73248 307.584 
L 219.01824 307.584 
L 218.304 307.584 
L 217.58976 307.584 
L 216.87552 307.584 
L 216.16128 307.584 
L 215.44704 307.584 
L 214.7328 307.584 
L 214.01856 307.584 
L 213.30432 307.584 
L 212.59008 307.584 
L 211.87584 307.584 
L 211.1616 307.584 
L 210.44736 307.584 
L 209.73312 307.584 
L 209.01888 307.584 
L 208.30464 307.584 
L 207.5904 307.584 
L 206.87616 307.584 
L 206.16192 307.584 
L 205.44768 307.584 
L 204.73344 307.584 
L 204.0192 307.584 
L 203.30496 307.584 
L 202.59072 307.584 
L 201.87648 307.584 
L 201.16224 307.584 
L 200.448 307.584 
L 200.448 307.584 
L 199.73376 307.584 
L 199.01952 307.584 
L 198.30528 307.584 
L 197.59104 307.584 
L 196.8768 307.584 
L 196.16256 307.584 
L 195.44832 307.584 
L 194.73408 307.584 
L 194.01984 307.584 
L 193.3056 307.584 
L 192.59136 307.584 
L 191.87712 307.584 
L 191.16288 307.584 
L 190.44864 307.584 
L 189.7344 307.584 
L 189.02016 307.584 
L 188.30592 307.584 
L 187.59168 307.584 
L 186.87744 307.584 
L 186.1632 307.584 
L 185.44896 307.584 
L 184.73472 307.584 
L 184.02048 307.584 
L 183.30624 307.584 
L 182.592 307.584 
L 181.87776 307.584 
L 181.16352 307.584 
L 180.44928 307.584 
L 179.73504 307.584 
L 179.0208 307.584 
L 178.30656 307.584 
L 177.59232 307.584 
L 176.87808 307.584 
L 176.16384 307.584 
L 175.4496 307.584 
L 174.73536 307.584 
L 174.02112 307.584 
L 173.30688 307.584 
L 172.59264 307.584 
L 171.8784 307.584 
L 171.16416 307.584 
L 170.44992 307.584 
L 169.73568 307.584 
L 169.02144 307.584 
L 168.3072 307.584 
L 167.59296 307.584 
L 166.87872 307.584 
L 166.16448 307.584 
L 165.45024 307.584 
L 164.736 307.584 
L 164.02176 307.584 
L 163.30752 307.584 
L 162.59328 307.584 
L 161.87904 307.584 
L 161.1648 307.584 
L 160.45056 307.584 
L 159.73632 307.584 
L 159.02208 307.584 
L 158.30784 307.584 
L 157.5936 307.584 
L 156.937828 307.584 
L 156.937828 307.584 
L 156.937828 307.584 
L 156.937828 307.584 
L 156.87936 307.584 
L 156.16512 307.584 
L 155.45088 307.584 
L 154.73664 307.584 
L 154.0224 307.584 
L 153.30816 307.584 
L 152.59392 307.584 
L 151.87968 307.584 
L 151.16544 307.584 
L 150.4512 307.584 
L 149.73696 307.584 
L 149.02272 307.584 
L 148.30848 307.584 
L 147.59424 307.584 
L 146.88 307.584 
L 146.16576 307.584 
L 145.45152 307.584 
L 144.73728 307.584 
L 144.02304 307.584 
L 143.3088 307.584 
L 142.59456 307.584 
L 141.88032 307.584 
L 141.16608 307.584 
L 140.45184 307.584 
L 139.7376 307.584 
L 139.02336 307.584 
L 138.30912 307.584 
L 137.59488 307.584 
L 136.88064 307.584 
L 136.1664 307.584 
L 135.45216 307.584 
L 134.73792 307.584 
L 134.02368 307.584 
L 133.30944 307.584 
L 132.5952 307.584 
L 131.88096 307.584 
L 131.16672 307.584 
L 130.45248 307.584 
L 129.73824 307.584 
L 129.024 307.584 
L 129.024 307.584 
L 128.30976 307.584 
L 127.59552 307.584 
L 126.88128 307.584 
L 126.16704 307.584 
L 125.4528 307.584 
L 124.73856 307.584 
L 124.02432 307.584 
L 123.31008 307.584 
L 122.59584 307.584 
L 121.8816 307.584 
L 121.16736 307.584 
L 120.45312 307.584 
L 119.73888 307.584 
L 119.02464 307.584 
L 118.3104 307.584 
L 117.59616 307.584 
L 116.88192 307.584 
L 116.16768 307.584 
L 115.45344 307.584 
L 114.7392 307.584 
L 114.02496 307.584 
L 113.31072 307.584 
L 112.59648 307.584 
L 111.88224 307.584 
L 111.168 307.584 
L 110.45376 307.584 
L 109.73952 307.584 
L 109.02528 307.584 
L 108.31104 307.584 
L 107.5968 307.584 
L 106.88256 307.584 
L 106.16832 307.584 
L 105.45408 307.584 
L 104.73984 307.584 
L 104.0256 307.584 
L 103.31136 307.584 
L 102.59712 307.584 
L 101.88288 307.584 
L 101.16864 307.584 
L 100.4544 307.584 
L 99.74016 307.584 
L 99.02592 307.584 
L 98.31168 307.584 
L 97.59744 307.584 
L 96.8832 307.584 
L 96.16896 307.584 
L 95.45472 307.584 
L 94.74048 307.584 
L 94.02624 307.584 
L 93.312 307.584 
L 92.59776 307.584 
L 91.88352 307.584 
L 91.16928 307.584 
L 90.45504 307.584 
L 89.853148 307.584 
L 89.853148 307.584 
L 89.853148 307.584 
L 89.853148 307.584 
L 89.7408 307.584 
L 89.02656 307.584 
L 88.31232 307.584 
L 87.59808 307.584 
L 86.88384 307.584 
L 86.1696 307.584 
L 85.45536 307.584 
L 84.74112 307.584 
L 84.02688 307.584 
L 83.31264 307.584 
L 82.5984 307.584 
L 81.88416 307.584 
L 81.16992 307.584 
L 80.45568 307.584 
L 79.74144 307.584 
L 79.0272 307.584 
L 78.31296 307.584 
L 77.59872 307.584 
L 76.88448 307.584 
L 76.17024 307.584 
L 75.456 307.584 
L 74.74176 307.584 
L 74.02752 307.584 
L 73.31328 307.584 
L 72.59904 307.584 
L 71.8848 307.584 
L 71.17056 307.584 
L 70.45632 307.584 
L 69.74208 307.584 
L 69.02784 307.584 
L 68.3136 307.584 
L 67.59936 307.584 
L 66.88512 307.584 
L 66.17088 307.584 
L 65.45664 307.584 
L 64.7424 307.584 
L 64.02816 307.584 
L 63.31392 307.584 
L 62.59968 307.584 
L 61.88544 307.584 
L 61.1712 307.584 
L 60.45696 307.584 
L 59.74272 307.584 
L 59.02848 307.584 
L 58.31424 307.584 
L 57.6 307.584 
z
" style="fill:#1f77b4;"/>
   </g>
   <g id="matplotlib.axis_1">
    <g id="xtick_1">
     <g id="line2d_1">
      <defs>
       <path d="M 0 0 
L 0 3.5 
" id="md57751e698" style="stroke:#000000;stroke-width:0.8;"/>
      </defs>
      <g>
       <use style="stroke:#000000;stroke-width:0.8;" x="57.6" xlink:href="#md57751e698" y="307.584"/>
      </g>
     </g>
     <g id="text_1">
      <!-- 0 -->
      <defs>
       <path d="M 31.78125 66.40625 
Q 24.171875 66.40625 20.328125 58.90625 
Q 16.5 51.421875 16.5 36.375 
Q 16.5 21.390625 20.328125 13.890625 
Q 24.171875 6.390625 31.78125 6.390625 
Q 39.453125 6.390625 43.28125 13.890625 
Q 47.125 21.390625 47.125 36.375 
Q 47.125 51.421875 43.28125 58.90625 
Q 39.453125 66.40625 31.78125 66.40625 
M 31.78125 74.21875 
Q 44.046875 74.21875 50.515625 64.515625 
Q 56.984375 54.828125 56.984375 36.375 
Q 56.984375 17.96875 50.515625 8.265625 
Q 44.046875 -1.421875 31.78125 -1.421875 
Q 19.53125 -1.421875 13.0625 8.265625 
Q 6.59375 17.96875 6.59375 36.375 
Q 6.59375 54.828125 13.0625 64.515625 
Q 19.53125 74.21875 31.78125 74.21875 
" id="DejaVuSans-30"/>
      </defs>
      <g transform="translate(54.41875 322.182437)scale(0.1 -0.1)">
       <use xlink:href="#DejaVuSans-30"/>
      </g>
     </g>
    </g>
    <g id="xtick_2">
     <g id="line2d_2">
      <g>
       <use style="stroke:#000000;stroke-width:0.8;" x="129.024" xlink:href="#md57751e698" y="307.584"/>
      </g>
     </g>
     <g id="text_2">
      <!-- 1 -->
      <defs>
       <path d="M 12.40625 8.296875 
L 28.515625 8.296875 
L 28.515625 63.921875 
L 10.984375 60.40625 
L 10.984375 69.390625 
L 28.421875 72.90625 
L 38.28125 72.90625 
L 38.28125 8.296875 
L 54.390625 8.296875 
L 54.390625 0 
L 12.40625 0 
z
" id="DejaVuSans-31"/>
      </defs>
      <g transform="translate(125.84275 322.182437)scale(0.1 -0.1)">
       <use xlink:href="#DejaVuSans-31"/>
      </g>
     </g>
    </g>
    <g id="xtick_3">
     <g id="line2d_3">
      <g>
       <use style="stroke:#000000;stroke-width:0.8;" x="200.448" xlink:href="#md57751e698" y="307.584"/>
      </g>
     </g>
     <g id="text_3">
      <!-- 2 -->
      <defs>
       <path d="M 19.1875 8.296875 
L 53.609375 8.296875 
L 53.609375 0 
L 7.328125 0 
L 7.328125 8.296875 
Q 12.9375 14.109375 22.625 23.890625 
Q 32.328125 33.6875 34.8125 36.53125 
Q 39.546875 41.84375 41.421875 45.53125 
Q 43.3125 49.21875 43.3125 52.78125 
Q 43.3125 58.59375 39.234375 62.25 
Q 35.15625 65.921875 28.609375 65.921875 
Q 23.96875 65.921875 18.8125 64.3125 
Q 13.671875 62.703125 7.8125 59.421875 
L 7.8125 69.390625 
Q 13.765625 71.78125 18.9375 73 
Q 24.125 74.21875 28.421875 74.21875 
Q 39.75 74.21875 46.484375 68.546875 
Q 53.21875 62.890625 53.21875 53.421875 
Q 53.21875 48.921875 51.53125 44.890625 
Q 49.859375 40.875 45.40625 35.40625 
Q 44.1875 33.984375 37.640625 27.21875 
Q 31.109375 20.453125 19.1875 8.296875 
" id="DejaVuSans-32"/>
      </defs>
      <g transform="translate(197.26675 322.182437)scale(0.1 -0.1)">
       <use xlink:href="#DejaVuSans-32"/>
      </g>
     </g>
    </g>
    <g id="xtick_4">
     <g id="line2d_4">
      <g>
       <use style="stroke:#000000;stroke-width:0.8;" x="271.872" xlink:href="#md57751e698" y="307.584"/>
      </g>
     </g>
     <g id="text_4">
      <!-- 3 -->
      <defs>
       <path d="M 40.578125 39.3125 
Q 47.65625 37.796875 51.625 33 
Q 55.609375 28.21875 55.609375 21.1875 
Q 55.609375 10.40625 48.1875 4.484375 
Q 40.765625 -1.421875 27.09375 -1.421875 
Q 22.515625 -1.421875 17.65625 -0.515625 
Q 12.796875 0.390625 7.625 2.203125 
L 7.625 11.71875 
Q 11.71875 9.328125 16.59375 8.109375 
Q 21.484375 6.890625 26.8125 6.890625 
Q 36.078125 6.890625 40.9375 10.546875 
Q 45.796875 14.203125 45.796875 21.1875 
Q 45.796875 27.640625 41.28125 31.265625 
Q 36.765625 34.90625 28.71875 34.90625 
L 20.21875 34.90625 
L 20.21875 43.015625 
L 29.109375 43.015625 
Q 36.375 43.015625 40.234375 45.921875 
Q 44.09375 48.828125 44.09375 54.296875 
Q 44.09375 59.90625 40.109375 62.90625 
Q 36.140625 65.921875 28.71875 65.921875 
Q 24.65625 65.921875 20.015625 65.03125 
Q 15.375 64.15625 9.8125 62.3125 
L 9.8125 71.09375 
Q 15.4375 72.65625 20.34375 73.4375 
Q 25.25 74.21875 29.59375 74.21875 
Q 40.828125 74.21875 47.359375 69.109375 
Q 53.90625 64.015625 53.90625 55.328125 
Q 53.90625 49.265625 50.4375 45.09375 
Q 46.96875 40.921875 40.578125 39.3125 
" id="DejaVuSans-33"/>
      </defs>
      <g transform="translate(268.69075 322.182437)scale(0.1 -0.1)">
       <use xlink:href="#DejaVuSans-33"/>
      </g>
     </g>
    </g>
    <g id="xtick_5">
     <g id="line2d_5">
      <g>
       <use style="stroke:#000000;stroke-width:0.8;" x="343.296" xlink:href="#md57751e698" y="307.584"/>
      </g>
     </g>
     <g id="text_5">
      <!-- 4 -->
      <defs>
       <path d="M 37.796875 64.3125 
L 12.890625 25.390625 
L 37.796875 25.390625 
z
M 35.203125 72.90625 
L 47.609375 72.90625 
L 47.609375 25.390625 
L 58.015625 25.390625 
L 58.015625 17.1875 
L 47.609375 17.1875 
L 47.609375 0 
L 37.796875 0 
L 37.796875 17.1875 
L 4.890625 17.1875 
L 4.890625 26.703125 
z
" id="DejaVuSans-34"/>
      </defs>
      <g transform="translate(340.11475 322.182437)scale(0.1 -0.1)">
       <use xlink:href="#DejaVuSans-34"/>
      </g>
     </g>
    </g>
    <g id="xtick_6">
     <g id="line2d_6">
      <g>
       <use style="stroke:#000000;stroke-width:0.8;" x="414.72" xlink:href="#md57751e698" y="307.584"/>
      </g>
     </g>
     <g id="text_6">
      <!-- 5 -->
      <defs>
       <path d="M 10.796875 72.90625 
L 49.515625 72.90625 
L 49.515625 64.59375 
L 19.828125 64.59375 
L 19.828125 46.734375 
Q 21.96875 47.46875 24.109375 47.828125 
Q 26.265625 48.1875 28.421875 48.1875 
Q 40.625 48.1875 47.75 41.5 
Q 54.890625 34.8125 54.890625 23.390625 
Q 54.890625 11.625 47.5625 5.09375 
Q 40.234375 -1.421875 26.90625 -1.421875 
Q 22.3125 -1.421875 17.546875 -0.640625 
Q 12.796875 0.140625 7.71875 1.703125 
L 7.71875 11.625 
Q 12.109375 9.234375 16.796875 8.0625 
Q 21.484375 6.890625 26.703125 6.890625 
Q 35.15625 6.890625 40.078125 11.328125 
Q 45.015625 15.765625 45.015625 23.390625 
Q 45.015625 31 40.078125 35.4375 
Q 35.15625 39.890625 26.703125 39.890625 
Q 22.75 39.890625 18.8125 39.015625 
Q 14.890625 38.140625 10.796875 36.28125 
z
" id="DejaVuSans-35"/>
      </defs>
      <g transform="translate(411.53875 322.182437)scale(0.1 -0.1)">
       <use xlink:href="#DejaVuSans-35"/>
      </g>
     </g>
    </g>
   </g>
   <g id="matplotlib.axis_2">
    <g id="ytick_1">
     <g id="line2d_7">
      <defs>
       <path d="M 0 0 
L -3.5 0 
" id="m40b9a8d461" style="stroke:#000000;stroke-width:0.8;"/>
      </defs>
      <g>
       <use style="stroke:#000000;stroke-width:0.8;" x="57.6" xlink:href="#m40b9a8d461" y="307.584"/>
      </g>
     </g>
     <g id="text_7">
      <!-- 0 -->
      <g transform="translate(44.2375 311.383219)scale(0.1 -0.1)">
       <use xlink:href="#DejaVuSans-30"/>
      </g>
     </g>
    </g>
    <g id="ytick_2">
     <g id="line2d_8">
      <g>
       <use style="stroke:#000000;stroke-width:0.8;" x="57.6" xlink:href="#m40b9a8d461" y="259.2"/>
      </g>
     </g>
     <g id="text_8">
      <!-- 1 -->
      <g transform="translate(44.2375 262.999219)scale(0.1 -0.1)">
       <use xlink:href="#DejaVuSans-31"/>
      </g>
     </g>
    </g>
    <g id="ytick_3">
     <g id="line2d_9">
      <g>
       <use style="stroke:#000000;stroke-width:0.8;" x="57.6" xlink:href="#m40b9a8d461" y="210.816"/>
      </g>
     </g>
     <g id="text_9">
      <!-- 2 -->
      <g transform="translate(44.2375 214.615219)scale(0.1 -0.1)">
       <use xlink:href="#DejaVuSans-32"/>
      </g>
     </g>
    </g>
    <g id="ytick_4">
     <g id="line2d_10">
      <g>
       <use style="stroke:#000000;stroke-width:0.8;" x="57.6" xlink:href="#m40b9a8d461" y="162.432"/>
      </g>
     </g>
     <g id="text_10">
      <!-- 3 -->
      <g transform="translate(44.2375 166.231219)scale(0.1 -0.1)">
       <use xlink:href="#DejaVuSans-33"/>
      </g>
     </g>
    </g>
    <g id="ytick_5">
     <g id="line2d_11">
      <g>
       <use style="stroke:#000000;stroke-width:0.8;" x="57.6" xlink:href="#m40b9a8d461" y="114.048"/>
      </g>
     </g>
     <g id="text_11">
      <!-- 4 -->
      <g transform="translate(44.2375 117.847219)scale(0.1 -0.1)">
       <use xlink:href="#DejaVuSans-34"/>
      </g>
     </g>
    </g>
    <g id="ytick_6">
     <g id="line2d_12">
      <g>
       <use style="stroke:#000000;stroke-width:0.8;" x="57.6" xlink:href="#m40b9a8d461" y="65.664"/>
      </g>
     </g>
     <g id="text_12">
      <!-- 5 -->
      <g transform="translate(44.2375 69.463219)scale(0.1 -0.1)">
       <use xlink:href="#DejaVuSans-35"/>
      </g>
     </g>
    </g>
   </g>
   <g id="line2d_13">
    <path clip-path="url(#pac3b898fe2)" d="M 57.6 65.664 
L 59.02848 65.759993 
L 60.45696 66.045489 
L 61.88544 66.520373 
L 63.31392 67.185229 
L 64.7424 68.039618 
L 66.17088 69.083676 
L 68.3136 71.005878 
L 70.45632 73.354921 
L 72.59904 76.130806 
L 74.74176 79.333858 
L 76.88448 82.963977 
L 79.0272 87.021067 
L 81.16992 91.505128 
L 83.31264 96.416161 
L 86.1696 103.628403 
L 89.02656 111.600025 
L 89.853148 114.048 
L 89.853148 114.048 
L 92.59776 107.847961 
L 94.74048 103.468737 
L 96.8832 99.514815 
L 99.02592 95.987794 
L 101.16864 92.887367 
L 103.31136 90.214169 
L 105.45408 87.967812 
L 107.5968 86.148296 
L 109.02528 85.172674 
L 110.45376 84.386833 
L 111.88224 83.790756 
L 113.31072 83.384445 
L 114.7392 83.167898 
L 116.16768 83.141117 
L 117.59616 83.304101 
L 119.02464 83.656849 
L 120.45312 84.1994 
L 121.8816 84.931771 
L 123.31008 85.853929 
L 124.73856 86.965874 
L 126.88128 88.989642 
L 129.024 91.44043 
L 129.024 91.44043 
L 131.16672 94.354791 
L 133.30944 97.665901 
L 135.45216 101.399006 
L 137.59488 105.558577 
L 139.7376 110.144976 
L 141.88032 115.158351 
L 144.73728 122.507057 
L 147.59424 130.614652 
L 150.4512 139.481635 
L 153.30816 149.107678 
L 156.16512 159.492781 
L 156.937828 162.432 
L 156.937828 162.432 
L 159.73632 154.228231 
L 162.59328 146.5773 
L 165.45024 139.684538 
L 167.59296 135.012964 
L 169.73568 130.768456 
L 171.8784 126.950789 
L 174.02112 123.560218 
L 176.16384 120.596713 
L 178.30656 118.06018 
L 180.44928 115.950619 
L 182.592 114.268029 
L 184.02048 113.383572 
L 185.44896 112.688952 
L 186.87744 112.184117 
L 188.30592 111.869066 
L 189.7344 111.743799 
L 191.16288 111.808317 
L 192.59136 112.062619 
L 194.01984 112.506705 
L 195.44832 113.140576 
L 196.8768 113.964231 
L 198.30528 114.977671 
L 200.448 116.853675 
L 200.448 116.853675 
L 202.59072 119.190024 
L 204.73344 121.924857 
L 206.87616 125.082955 
L 209.01888 128.667742 
L 211.1616 132.679211 
L 213.30432 137.117913 
L 215.44704 141.983456 
L 218.304 149.134939 
L 221.16096 157.045754 
L 224.01792 165.71563 
L 226.87488 175.144566 
L 229.73184 185.332661 
L 232.5888 196.280035 
L 235.44576 207.986547 
L 236.109752 210.816 
L 236.16 210.644735 
L 239.01696 201.24609 
L 241.87392 192.589211 
L 244.73088 184.691045 
L 247.58784 177.551969 
L 249.73056 172.695743 
L 251.87328 168.266641 
L 254.016 164.264511 
L 256.15872 160.689351 
L 258.30144 157.541183 
L 260.44416 154.820134 
L 262.58688 152.5261 
L 264.7296 150.659081 
L 266.15808 149.651632 
L 267.58656 148.833968 
L 269.01504 148.206087 
L 270.44352 147.767991 
L 271.872 147.51968 
L 271.872 147.51968 
L 273.30048 147.479221 
L 274.72896 147.613942 
L 276.15744 147.935758 
L 277.58592 148.447013 
L 279.0144 149.148155 
L 280.44288 150.038835 
L 281.87136 151.119302 
L 284.01408 153.095898 
L 286.1568 155.499336 
L 288.29952 158.329829 
L 290.44224 161.587409 
L 292.58496 165.271961 
L 294.72768 169.383483 
L 296.8704 173.921978 
L 299.01312 178.887588 
L 301.87008 186.172709 
L 304.72704 194.216967 
L 307.584 203.020362 
L 310.44096 212.582895 
L 313.29792 222.904564 
L 316.15488 233.985412 
L 319.01184 245.825504 
L 322.039153 259.2 
L 322.039153 259.2 
L 324.72576 249.747731 
L 327.58272 240.422452 
L 330.43968 231.856189 
L 333.29664 224.049006 
L 336.1536 217.000959 
L 338.29632 212.213064 
L 340.43904 207.852223 
L 342.58176 203.918401 
L 344.72448 200.429006 
L 346.8672 197.353035 
L 349.00992 194.700929 
L 351.15264 192.475576 
L 353.29536 190.67724 
L 354.72384 189.715514 
L 356.15232 188.943496 
L 357.5808 188.361349 
L 359.00928 187.969001 
L 360.43776 187.766417 
L 361.86624 187.753599 
L 363.29472 187.930546 
L 364.7232 188.297258 
L 366.15168 188.853801 
L 367.58016 189.60017 
L 369.00864 190.536322 
L 370.43712 191.662259 
L 372.57984 193.707011 
L 374.72256 196.178777 
L 376.86528 199.077557 
L 379.008 202.403353 
L 381.15072 206.156174 
L 383.29344 210.3361 
L 385.43616 214.943055 
L 387.57888 219.977039 
L 390.43584 227.353286 
L 393.2928 235.488696 
L 396.14976 244.383268 
L 399.00672 254.037004 
L 401.86368 264.449903 
L 404.72064 275.621965 
L 407.5776 287.55319 
L 411.1488 303.53481 
L 412.013745 307.584 
L 412.013745 307.584 
L 414.72 297.702204 
L 414.72 297.702204 
" style="fill:none;stroke:#0000ff;stroke-linecap:square;stroke-width:1.5;"/>
   </g>
   <g id="patch_3">
    <path d="M 57.6 307.584 
L 57.6 41.472 
" style="fill:none;stroke:#000000;stroke-linecap:square;stroke-linejoin:miter;stroke-width:0.8;"/>
   </g>
   <g id="patch_4">
    <path d="M 414.72 307.584 
L 414.72 41.472 
" style="fill:none;stroke:#000000;stroke-linecap:square;stroke-linejoin:miter;stroke-width:0.8;"/>
   </g>
   <g id="patch_5">
    <path d="M 57.6 307.584 
L 414.72 307.584 
" style="fill:none;stroke:#000000;stroke-linecap:square;stroke-linejoin:miter;stroke-width:0.8;"/>
   </g>
   <g id="patch_6">
    <path d="M 57.6 41.472 
L 414.72 41.472 
" style="fill:none;stroke:#000000;stroke-linecap:square;stroke-linejoin:miter;stroke-width:0.8;"/>
   </g>
  </g>
 </g>
 <defs>
  <clipPath id="pac3b898fe2">
   <rect height="266.112" width="357.12" x="57.6" y="41.472"/>
  </clipPath>
 </defs>
</svg>
