<?xml version="1.0" encoding="utf-8" standalone="no"?>
<!DOCTYPE svg PUBLIC "-//W3C//DTD SVG 1.1//EN"
  "http://www.w3.org/Graphics/SVG/1.1/DTD/svg11.dtd">
<!-- Created with matplotlib (http://matplotlib.org/) -->
<svg height="345pt" version="1.1" viewBox="0 0 460 345" width="460pt" xmlns="http://www.w3.org/2000/svg" xmlns:xlink="http://www.w3.org/1999/xlink">
 <defs>
  <style type="text/css">
*{stroke-linecap:butt;stroke-linejoin:round;}
  </style>
 </defs>
 <g id="figure_1">
  <g id="patch_1">
   <path d="M 0 345.6 
L 460.8 345.6 
L 460.8 0 
L 0 0 
z
" style="fill:#ffffff;"/>
  </g>
  <g id="axes_1">
   <g id="patch_2">
    <path d="M 57.6 307.584 
L 414.72 307.584 
L 414.72 41.472 
L 57.6 41.472 
z
" style="fill:#ffffff;"/>
   </g>
   <g id="matplotlib.axis_1">
    <g id="xtick_1">
     <g id="line2d_1">
      <defs>
       <path d="M 0 0 
L 0 3.5 
" id="mb14b4c9dae" style="stroke:#000000;stroke-width:0.8;"/>
      </defs>
      <g>
       <use style="stroke:#000000;stroke-width:0.8;" x="57.6" xlink:href="#mb14b4c9dae" y="307.584"/>
      </g>
     </g>
     <g id="text_1">
      <!-- 0 -->
      <defs>
       <path d="M 31.78125 66.40625 
Q 24.171875 66.40625 20.328125 58.90625 
Q 16.5 51.421875 16.5 36.375 
Q 16.5 21.390625 20.328125 13.890625 
Q 24.171875 6.390625 31.78125 6.390625 
Q 39.453125 6.390625 43.28125 13.890625 
Q 47.125 21.390625 47.125 36.375 
Q 47.125 51.421875 43.28125 58.90625 
Q 39.453125 66.40625 31.78125 66.40625 
z
M 31.78125 74.21875 
Q 44.046875 74.21875 50.515625 64.515625 
Q 56.984375 54.828125 56.984375 36.375 
Q 56.984375 17.96875 50.515625 8.265625 
Q 44.046875 -1.421875 31.78125 -1.421875 
Q 19.53125 -1.421875 13.0625 8.265625 
Q 6.59375 17.96875 6.59375 36.375 
Q 6.59375 54.828125 13.0625 64.515625 
Q 19.53125 74.21875 31.78125 74.21875 
z
" id="DejaVuSans-30"/>
      </defs>
      <g transform="translate(54.41875 322.182437)scale(0.1 -0.1)">
       <use xlink:href="#DejaVuSans-30"/>
      </g>
     </g>
    </g>
    <g id="xtick_2">
     <g id="line2d_2">
      <g>
       <use style="stroke:#000000;stroke-width:0.8;" x="117.12" xlink:href="#mb14b4c9dae" y="307.584"/>
      </g>
     </g>
     <g id="text_2">
      <!-- 5 -->
      <defs>
       <path d="M 10.796875 72.90625 
L 49.515625 72.90625 
L 49.515625 64.59375 
L 19.828125 64.59375 
L 19.828125 46.734375 
Q 21.96875 47.46875 24.109375 47.828125 
Q 26.265625 48.1875 28.421875 48.1875 
Q 40.625 48.1875 47.75 41.5 
Q 54.890625 34.8125 54.890625 23.390625 
Q 54.890625 11.625 47.5625 5.09375 
Q 40.234375 -1.421875 26.90625 -1.421875 
Q 22.3125 -1.421875 17.546875 -0.640625 
Q 12.796875 0.140625 7.71875 1.703125 
L 7.71875 11.625 
Q 12.109375 9.234375 16.796875 8.0625 
Q 21.484375 6.890625 26.703125 6.890625 
Q 35.15625 6.890625 40.078125 11.328125 
Q 45.015625 15.765625 45.015625 23.390625 
Q 45.015625 31 40.078125 35.4375 
Q 35.15625 39.890625 26.703125 39.890625 
Q 22.75 39.890625 18.8125 39.015625 
Q 14.890625 38.140625 10.796875 36.28125 
z
" id="DejaVuSans-35"/>
      </defs>
      <g transform="translate(113.93875 322.182437)scale(0.1 -0.1)">
       <use xlink:href="#DejaVuSans-35"/>
      </g>
     </g>
    </g>
    <g id="xtick_3">
     <g id="line2d_3">
      <g>
       <use style="stroke:#000000;stroke-width:0.8;" x="176.64" xlink:href="#mb14b4c9dae" y="307.584"/>
      </g>
     </g>
     <g id="text_3">
      <!-- 10 -->
      <defs>
       <path d="M 12.40625 8.296875 
L 28.515625 8.296875 
L 28.515625 63.921875 
L 10.984375 60.40625 
L 10.984375 69.390625 
L 28.421875 72.90625 
L 38.28125 72.90625 
L 38.28125 8.296875 
L 54.390625 8.296875 
L 54.390625 0 
L 12.40625 0 
z
" id="DejaVuSans-31"/>
      </defs>
      <g transform="translate(170.2775 322.182437)scale(0.1 -0.1)">
       <use xlink:href="#DejaVuSans-31"/>
       <use x="63.623047" xlink:href="#DejaVuSans-30"/>
      </g>
     </g>
    </g>
    <g id="xtick_4">
     <g id="line2d_4">
      <g>
       <use style="stroke:#000000;stroke-width:0.8;" x="236.16" xlink:href="#mb14b4c9dae" y="307.584"/>
      </g>
     </g>
     <g id="text_4">
      <!-- 15 -->
      <g transform="translate(229.7975 322.182437)scale(0.1 -0.1)">
       <use xlink:href="#DejaVuSans-31"/>
       <use x="63.623047" xlink:href="#DejaVuSans-35"/>
      </g>
     </g>
    </g>
    <g id="xtick_5">
     <g id="line2d_5">
      <g>
       <use style="stroke:#000000;stroke-width:0.8;" x="295.68" xlink:href="#mb14b4c9dae" y="307.584"/>
      </g>
     </g>
     <g id="text_5">
      <!-- 20 -->
      <defs>
       <path d="M 19.1875 8.296875 
L 53.609375 8.296875 
L 53.609375 0 
L 7.328125 0 
L 7.328125 8.296875 
Q 12.9375 14.109375 22.625 23.890625 
Q 32.328125 33.6875 34.8125 36.53125 
Q 39.546875 41.84375 41.421875 45.53125 
Q 43.3125 49.21875 43.3125 52.78125 
Q 43.3125 58.59375 39.234375 62.25 
Q 35.15625 65.921875 28.609375 65.921875 
Q 23.96875 65.921875 18.8125 64.3125 
Q 13.671875 62.703125 7.8125 59.421875 
L 7.8125 69.390625 
Q 13.765625 71.78125 18.9375 73 
Q 24.125 74.21875 28.421875 74.21875 
Q 39.75 74.21875 46.484375 68.546875 
Q 53.21875 62.890625 53.21875 53.421875 
Q 53.21875 48.921875 51.53125 44.890625 
Q 49.859375 40.875 45.40625 35.40625 
Q 44.1875 33.984375 37.640625 27.21875 
Q 31.109375 20.453125 19.1875 8.296875 
z
" id="DejaVuSans-32"/>
      </defs>
      <g transform="translate(289.3175 322.182437)scale(0.1 -0.1)">
       <use xlink:href="#DejaVuSans-32"/>
       <use x="63.623047" xlink:href="#DejaVuSans-30"/>
      </g>
     </g>
    </g>
    <g id="xtick_6">
     <g id="line2d_6">
      <g>
       <use style="stroke:#000000;stroke-width:0.8;" x="355.2" xlink:href="#mb14b4c9dae" y="307.584"/>
      </g>
     </g>
     <g id="text_6">
      <!-- 25 -->
      <g transform="translate(348.8375 322.182437)scale(0.1 -0.1)">
       <use xlink:href="#DejaVuSans-32"/>
       <use x="63.623047" xlink:href="#DejaVuSans-35"/>
      </g>
     </g>
    </g>
    <g id="xtick_7">
     <g id="line2d_7">
      <g>
       <use style="stroke:#000000;stroke-width:0.8;" x="414.72" xlink:href="#mb14b4c9dae" y="307.584"/>
      </g>
     </g>
     <g id="text_7">
      <!-- 30 -->
      <defs>
       <path d="M 40.578125 39.3125 
Q 47.65625 37.796875 51.625 33 
Q 55.609375 28.21875 55.609375 21.1875 
Q 55.609375 10.40625 48.1875 4.484375 
Q 40.765625 -1.421875 27.09375 -1.421875 
Q 22.515625 -1.421875 17.65625 -0.515625 
Q 12.796875 0.390625 7.625 2.203125 
L 7.625 11.71875 
Q 11.71875 9.328125 16.59375 8.109375 
Q 21.484375 6.890625 26.8125 6.890625 
Q 36.078125 6.890625 40.9375 10.546875 
Q 45.796875 14.203125 45.796875 21.1875 
Q 45.796875 27.640625 41.28125 31.265625 
Q 36.765625 34.90625 28.71875 34.90625 
L 20.21875 34.90625 
L 20.21875 43.015625 
L 29.109375 43.015625 
Q 36.375 43.015625 40.234375 45.921875 
Q 44.09375 48.828125 44.09375 54.296875 
Q 44.09375 59.90625 40.109375 62.90625 
Q 36.140625 65.921875 28.71875 65.921875 
Q 24.65625 65.921875 20.015625 65.03125 
Q 15.375 64.15625 9.8125 62.3125 
L 9.8125 71.09375 
Q 15.4375 72.65625 20.34375 73.4375 
Q 25.25 74.21875 29.59375 74.21875 
Q 40.828125 74.21875 47.359375 69.109375 
Q 53.90625 64.015625 53.90625 55.328125 
Q 53.90625 49.265625 50.4375 45.09375 
Q 46.96875 40.921875 40.578125 39.3125 
z
" id="DejaVuSans-33"/>
      </defs>
      <g transform="translate(408.3575 322.182437)scale(0.1 -0.1)">
       <use xlink:href="#DejaVuSans-33"/>
       <use x="63.623047" xlink:href="#DejaVuSans-30"/>
      </g>
     </g>
    </g>
   </g>
   <g id="matplotlib.axis_2">
    <g id="ytick_1">
     <g id="line2d_8">
      <defs>
       <path d="M 0 0 
L -3.5 0 
" id="m9dd8fe3266" style="stroke:#000000;stroke-width:0.8;"/>
      </defs>
      <g>
       <use style="stroke:#000000;stroke-width:0.8;" x="57.6" xlink:href="#m9dd8fe3266" y="307.00591"/>
      </g>
     </g>
     <g id="text_8">
      <!-- −1.5 -->
      <defs>
       <path d="M 10.59375 35.5 
L 73.1875 35.5 
L 73.1875 27.203125 
L 10.59375 27.203125 
z
" id="DejaVuSans-2212"/>
       <path d="M 10.6875 12.40625 
L 21 12.40625 
L 21 0 
L 10.6875 0 
z
" id="DejaVuSans-2e"/>
      </defs>
      <g transform="translate(26.317187 310.805129)scale(0.1 -0.1)">
       <use xlink:href="#DejaVuSans-2212"/>
       <use x="83.789062" xlink:href="#DejaVuSans-31"/>
       <use x="147.412109" xlink:href="#DejaVuSans-2e"/>
       <use x="179.199219" xlink:href="#DejaVuSans-35"/>
      </g>
     </g>
    </g>
    <g id="ytick_2">
     <g id="line2d_9">
      <g>
       <use style="stroke:#000000;stroke-width:0.8;" x="57.6" xlink:href="#m9dd8fe3266" y="262.847992"/>
      </g>
     </g>
     <g id="text_9">
      <!-- −1.0 -->
      <g transform="translate(26.317187 266.647211)scale(0.1 -0.1)">
       <use xlink:href="#DejaVuSans-2212"/>
       <use x="83.789062" xlink:href="#DejaVuSans-31"/>
       <use x="147.412109" xlink:href="#DejaVuSans-2e"/>
       <use x="179.199219" xlink:href="#DejaVuSans-30"/>
      </g>
     </g>
    </g>
    <g id="ytick_3">
     <g id="line2d_10">
      <g>
       <use style="stroke:#000000;stroke-width:0.8;" x="57.6" xlink:href="#m9dd8fe3266" y="218.690074"/>
      </g>
     </g>
     <g id="text_10">
      <!-- −0.5 -->
      <g transform="translate(26.317187 222.489292)scale(0.1 -0.1)">
       <use xlink:href="#DejaVuSans-2212"/>
       <use x="83.789062" xlink:href="#DejaVuSans-30"/>
       <use x="147.412109" xlink:href="#DejaVuSans-2e"/>
       <use x="179.199219" xlink:href="#DejaVuSans-35"/>
      </g>
     </g>
    </g>
    <g id="ytick_4">
     <g id="line2d_11">
      <g>
       <use style="stroke:#000000;stroke-width:0.8;" x="57.6" xlink:href="#m9dd8fe3266" y="174.532156"/>
      </g>
     </g>
     <g id="text_11">
      <!-- 0.0 -->
      <g transform="translate(34.696875 178.331374)scale(0.1 -0.1)">
       <use xlink:href="#DejaVuSans-30"/>
       <use x="63.623047" xlink:href="#DejaVuSans-2e"/>
       <use x="95.410156" xlink:href="#DejaVuSans-30"/>
      </g>
     </g>
    </g>
    <g id="ytick_5">
     <g id="line2d_12">
      <g>
       <use style="stroke:#000000;stroke-width:0.8;" x="57.6" xlink:href="#m9dd8fe3266" y="130.374237"/>
      </g>
     </g>
     <g id="text_12">
      <!-- 0.5 -->
      <g transform="translate(34.696875 134.173456)scale(0.1 -0.1)">
       <use xlink:href="#DejaVuSans-30"/>
       <use x="63.623047" xlink:href="#DejaVuSans-2e"/>
       <use x="95.410156" xlink:href="#DejaVuSans-35"/>
      </g>
     </g>
    </g>
    <g id="ytick_6">
     <g id="line2d_13">
      <g>
       <use style="stroke:#000000;stroke-width:0.8;" x="57.6" xlink:href="#m9dd8fe3266" y="86.216319"/>
      </g>
     </g>
     <g id="text_13">
      <!-- 1.0 -->
      <g transform="translate(34.696875 90.015538)scale(0.1 -0.1)">
       <use xlink:href="#DejaVuSans-31"/>
       <use x="63.623047" xlink:href="#DejaVuSans-2e"/>
       <use x="95.410156" xlink:href="#DejaVuSans-30"/>
      </g>
     </g>
    </g>
    <g id="ytick_7">
     <g id="line2d_14">
      <g>
       <use style="stroke:#000000;stroke-width:0.8;" x="57.6" xlink:href="#m9dd8fe3266" y="42.058401"/>
      </g>
     </g>
     <g id="text_14">
      <!-- 1.5 -->
      <g transform="translate(34.696875 45.85762)scale(0.1 -0.1)">
       <use xlink:href="#DejaVuSans-31"/>
       <use x="63.623047" xlink:href="#DejaVuSans-2e"/>
       <use x="95.410156" xlink:href="#DejaVuSans-35"/>
      </g>
     </g>
    </g>
   </g>
   <g id="line2d_15">
    <path clip-path="url(#p7bbbe8d9dd)" d="M 57.6 86.216319 
L 94.997519 86.216319 
L 95.083435 262.847992 
L 132.395038 262.847992 
L 132.489168 86.216319 
L 169.792556 86.216319 
L 169.890433 262.847992 
L 207.190076 262.847992 
L 207.277259 86.216319 
L 244.587595 86.216319 
L 244.686494 262.847992 
L 281.985114 262.847992 
L 282.082024 86.216319 
L 319.382632 86.216319 
L 319.470033 262.847992 
L 356.780151 262.847992 
L 356.87367 86.216319 
L 394.17767 86.216319 
L 394.270283 262.847992 
L 414.72 262.847992 
L 414.72 262.847992 
" style="fill:none;stroke:#0000ff;stroke-linecap:square;stroke-width:1.5;"/>
   </g>
   <g id="line2d_16">
    <path clip-path="url(#p7bbbe8d9dd)" d="M 57.6 174.532156 
L 57.611408 174.451583 
L 57.659806 172.389471 
L 57.78559 156.259217 
L 58.315049 77.43302 
L 58.337252 77.262691 
L 58.429535 79.372583 
L 58.660243 96.285035 
L 58.96809 113.228529 
L 59.030088 113.634063 
L 59.061087 113.464076 
L 59.209248 109.96198 
L 59.704021 95.65554 
L 59.756526 95.637665 
L 59.861537 96.45685 
L 60.450029 103.42593 
L 60.554579 103.073867 
L 61.154204 99.827625 
L 61.312206 100.138958 
L 61.765633 101.416113 
L 61.892959 101.425401 
L 62.147612 101.084712 
L 62.465927 100.719562 
L 62.72058 100.774997 
L 63.280078 101.03739 
L 64.517329 100.953029 
L 67.370139 100.936308 
L 95.002867 100.97116 
L 95.038326 102.958417 
L 95.142063 124.124653 
L 95.735958 295.47742 
L 95.845706 289.427732 
L 96.426798 222.742545 
L 96.462322 223.163052 
L 96.604418 229.941714 
L 97.084571 258.535445 
L 97.137921 258.780505 
L 97.244622 257.423285 
L 97.831475 243.12502 
L 97.884826 243.285564 
L 98.044877 245.079872 
L 98.468535 250.25726 
L 98.565761 250.32995 
L 98.662988 249.994206 
L 99.230416 247.112686 
L 99.370636 247.294105 
L 99.9713 248.580345 
L 100.192042 248.344625 
L 100.570896 247.930351 
L 100.841506 247.99698 
L 101.321364 248.222332 
L 106.175927 248.12823 
L 132.403249 248.044904 
L 132.449475 244.565037 
L 132.594468 206.620608 
L 133.083594 55.073441 
L 133.146232 53.635078 
L 133.241144 59.378002 
L 133.833137 126.318696 
L 133.868126 125.767294 
L 134.046251 115.933813 
L 134.461875 90.800668 
L 134.544734 90.291334 
L 134.586163 90.630542 
L 134.792154 96.193589 
L 135.170369 105.772867 
L 135.2244 105.944425 
L 135.27843 105.807577 
L 135.440523 104.025018 
L 135.872769 98.784508 
L 135.926799 98.704161 
L 135.98083 98.763817 
L 136.142922 99.564675 
L 136.577904 101.922018 
L 136.678924 101.929226 
L 136.830455 101.604401 
L 137.276567 100.492775 
L 137.451226 100.538126 
L 138.113537 101.130642 
L 138.940163 100.875051 
L 139.598933 100.968116 
L 140.644501 100.940306 
L 144.457327 100.93566 
L 169.798823 100.984337 
L 169.836592 103.285289 
L 169.932764 122.852752 
L 170.538745 295.46298 
L 170.585622 293.930813 
L 170.773132 270.85058 
L 171.148151 223.947643 
L 171.215955 222.700485 
L 171.249857 222.98244 
L 171.362832 227.510373 
L 171.927706 258.801126 
L 172.040681 257.426697 
L 172.61941 243.119779 
L 172.690343 243.338678 
L 172.89843 245.997551 
L 173.234586 250.141999 
L 173.313675 250.355336 
L 173.35322 250.344282 
L 173.432309 250.120995 
L 174.044834 247.114315 
L 174.090195 247.151241 
L 174.276355 247.615497 
L 174.626933 248.532911 
L 174.82042 248.549754 
L 175.512911 247.93479 
L 176.324866 248.192471 
L 176.997574 248.096415 
L 177.947854 248.128492 
L 180.666029 248.128797 
L 207.200029 248.005951 
L 207.247032 244.234145 
L 207.377682 210.875244 
L 207.907918 53.834293 
L 207.969771 54.457754 
L 208.155327 75.702482 
L 208.526439 124.274235 
L 208.610471 126.344527 
L 208.652487 125.97799 
L 208.778535 120.416443 
L 209.299643 90.338124 
L 209.339386 90.298008 
L 209.418871 91.237119 
L 209.688211 99.762989 
L 209.978987 105.842515 
L 210.016624 105.940091 
L 210.05426 105.886733 
L 210.191322 104.661162 
L 210.67104 98.781126 
L 210.717489 98.710161 
L 210.763939 98.743511 
L 210.881749 99.208822 
L 211.381269 101.928155 
L 211.4837 101.916504 
L 211.688561 101.403221 
L 212.022755 100.535755 
L 212.190456 100.495867 
L 212.469957 100.844847 
L 212.792758 101.13962 
L 213.073401 101.04345 
L 213.556746 100.842717 
L 215.605967 100.944082 
L 244.592377 100.964043 
L 244.632794 103.40905 
L 244.740497 126.657706 
L 245.311751 295.355705 
L 245.36404 294.731845 
L 245.520907 278.372934 
L 245.976195 223.034005 
L 246.013169 222.708003 
L 246.050142 223.081989 
L 246.219593 231.681761 
L 246.655892 258.281976 
L 246.737722 258.767494 
L 246.863754 256.739865 
L 247.411084 243.125923 
L 247.497492 243.425536 
L 247.753454 246.98058 
L 248.024943 250.117554 
L 248.133538 250.355267 
L 248.242133 250.052617 
L 248.851879 247.12024 
L 248.979339 247.336773 
L 249.470682 248.571594 
L 249.653732 248.516056 
L 250.273548 247.92572 
L 250.698585 248.16475 
L 251.062903 248.206836 
L 251.874765 248.106833 
L 252.772944 248.126556 
L 255.338715 248.129196 
L 281.995162 248.003726 
L 282.047635 243.458198 
L 282.179132 208.590842 
L 282.69384 54.115937 
L 282.731439 53.599697 
L 282.806636 57.117302 
L 283.013672 86.295897 
L 283.353517 125.543019 
L 283.390768 126.271825 
L 283.428019 126.262282 
L 283.547788 121.98788 
L 284.127157 90.276199 
L 284.227733 91.523302 
L 284.831188 105.932685 
L 284.881476 105.73221 
L 285.082627 103.199429 
L 285.444694 98.846716 
L 285.548286 98.724113 
L 285.703674 99.371866 
L 286.169187 101.920391 
L 286.286086 101.907476 
L 286.519884 101.281275 
L 286.872901 100.490651 
L 287.03992 100.537565 
L 287.695439 101.132649 
L 288.530686 100.875274 
L 289.189563 100.967995 
L 290.262734 100.941318 
L 295.712556 100.935601 
L 319.388284 100.975307 
L 319.424519 103.065321 
L 319.529133 124.70835 
L 320.115523 295.46923 
L 320.178223 293.790784 
L 320.366323 270.3422 
L 320.75414 223.452384 
L 320.800569 222.730297 
L 320.836831 222.950876 
L 320.960142 227.95871 
L 321.51671 258.791087 
L 321.618485 257.676748 
L 322.218276 243.126906 
L 322.289179 243.408858 
L 322.504131 246.269304 
L 322.845037 250.228631 
L 322.938163 250.344791 
L 323.052199 249.969238 
L 323.62754 247.114504 
L 323.747855 247.277667 
L 324.318601 248.586384 
L 324.468172 248.491376 
L 325.020923 247.921351 
L 325.322421 248.061906 
L 325.681755 248.220878 
L 326.200342 248.109858 
L 326.726776 248.115746 
L 327.517642 248.128726 
L 329.869543 248.129265 
L 356.788118 248.049916 
L 356.833927 244.649455 
L 356.970225 210.000942 
L 357.482222 54.377073 
L 357.517158 53.568 
L 357.552094 54.150326 
L 357.641935 61.065375 
L 358.202985 126.362711 
L 358.236441 126.098329 
L 358.336809 122.346218 
L 358.92869 90.285734 
L 359.054538 92.274014 
L 359.600576 105.937752 
L 359.643222 105.892879 
L 359.756698 104.979311 
L 360.29889 98.713834 
L 360.391659 98.838129 
L 360.62358 100.25609 
L 360.956572 101.912299 
L 361.057301 101.934289 
L 361.236327 101.540017 
L 361.652701 100.498806 
L 361.808842 100.514899 
L 362.512951 101.125241 
L 363.316398 100.872906 
L 363.967459 100.969707 
L 365.030974 100.940409 
L 369.39079 100.935591 
L 394.184985 101.002057 
L 394.230016 104.235736 
L 394.366166 138.502154 
L 394.88172 294.77337 
L 394.921608 295.488 
L 394.961496 294.421104 
L 395.081159 282.720351 
L 395.551752 223.363975 
L 395.596583 222.71218 
L 395.641414 223.103124 
L 395.775907 229.290282 
L 396.287639 258.738906 
L 396.337993 258.721874 
L 396.438702 257.127289 
L 396.992601 243.130669 
L 397.042955 243.17565 
L 397.194019 244.608897 
L 397.672978 250.321845 
L 397.720571 250.358442 
L 397.744367 250.336238 
L 397.875005 249.823462 
L 398.378833 247.124036 
L 398.466796 247.1416 
L 398.590597 247.396786 
L 399.055463 248.569692 
L 399.216314 248.540677 
L 399.866814 247.926383 
L 400.84668 248.151271 
L 401.362333 248.094242 
L 402.50883 248.121533 
L 410.466837 248.128617 
L 414.72 248.128747 
L 414.72 248.128747 
" style="fill:none;stroke:#ff0000;stroke-linecap:square;stroke-width:1.5;"/>
   </g>
   <g id="patch_3">
    <path d="M 57.6 307.584 
L 57.6 41.472 
" style="fill:none;stroke:#000000;stroke-linecap:square;stroke-linejoin:miter;stroke-width:0.8;"/>
   </g>
   <g id="patch_4">
    <path d="M 414.72 307.584 
L 414.72 41.472 
" style="fill:none;stroke:#000000;stroke-linecap:square;stroke-linejoin:miter;stroke-width:0.8;"/>
   </g>
   <g id="patch_5">
    <path d="M 57.6 307.584 
L 414.72 307.584 
" style="fill:none;stroke:#000000;stroke-linecap:square;stroke-linejoin:miter;stroke-width:0.8;"/>
   </g>
   <g id="patch_6">
    <path d="M 57.6 41.472 
L 414.72 41.472 
" style="fill:none;stroke:#000000;stroke-linecap:square;stroke-linejoin:miter;stroke-width:0.8;"/>
   </g>
  </g>
 </g>
 <defs>
  <clipPath id="p7bbbe8d9dd">
   <rect height="266.112" width="357.12" x="57.6" y="41.472"/>
  </clipPath>
 </defs>
</svg>
