<?xml version="1.0" encoding="utf-8" standalone="no"?>
<!DOCTYPE svg PUBLIC "-//W3C//DTD SVG 1.1//EN"
  "http://www.w3.org/Graphics/SVG/1.1/DTD/svg11.dtd">
<!-- Created with matplotlib (http://matplotlib.org/) -->
<svg height="345pt" version="1.1" viewBox="0 0 460 345" width="460pt" xmlns="http://www.w3.org/2000/svg" xmlns:xlink="http://www.w3.org/1999/xlink">
 <defs>
  <style type="text/css">
*{stroke-linecap:butt;stroke-linejoin:round;}
  </style>
 </defs>
 <g id="figure_1">
  <g id="patch_1">
   <path d="M 0 345.6 
L 460.8 345.6 
L 460.8 0 
L 0 0 
z
" style="fill:#ffffff;"/>
  </g>
  <g id="axes_1">
   <g id="patch_2">
    <path d="M 57.6 307.584 
L 414.72 307.584 
L 414.72 41.472 
L 57.6 41.472 
z
" style="fill:#ffffff;"/>
   </g>
   <g id="matplotlib.axis_1">
    <g id="xtick_1">
     <g id="line2d_1">
      <defs>
       <path d="M 0 0 
L 0 3.5 
" id="m115539b5f2" style="stroke:#000000;stroke-width:0.8;"/>
      </defs>
      <g>
       <use style="stroke:#000000;stroke-width:0.8;" x="57.6" xlink:href="#m115539b5f2" y="307.584"/>
      </g>
     </g>
     <g id="text_1">
      <!-- 0 -->
      <defs>
       <path d="M 31.78125 66.40625 
Q 24.171875 66.40625 20.328125 58.90625 
Q 16.5 51.421875 16.5 36.375 
Q 16.5 21.390625 20.328125 13.890625 
Q 24.171875 6.390625 31.78125 6.390625 
Q 39.453125 6.390625 43.28125 13.890625 
Q 47.125 21.390625 47.125 36.375 
Q 47.125 51.421875 43.28125 58.90625 
Q 39.453125 66.40625 31.78125 66.40625 
M 31.78125 74.21875 
Q 44.046875 74.21875 50.515625 64.515625 
Q 56.984375 54.828125 56.984375 36.375 
Q 56.984375 17.96875 50.515625 8.265625 
Q 44.046875 -1.421875 31.78125 -1.421875 
Q 19.53125 -1.421875 13.0625 8.265625 
Q 6.59375 17.96875 6.59375 36.375 
Q 6.59375 54.828125 13.0625 64.515625 
Q 19.53125 74.21875 31.78125 74.21875 
" id="DejaVuSans-30"/>
      </defs>
      <g transform="translate(54.41875 322.182437)scale(0.1 -0.1)">
       <use xlink:href="#DejaVuSans-30"/>
      </g>
     </g>
    </g>
    <g id="xtick_2">
     <g id="line2d_2">
      <g>
       <use style="stroke:#000000;stroke-width:0.8;" x="129.024" xlink:href="#m115539b5f2" y="307.584"/>
      </g>
     </g>
     <g id="text_2">
      <!-- 1 -->
      <defs>
       <path d="M 12.40625 8.296875 
L 28.515625 8.296875 
L 28.515625 63.921875 
L 10.984375 60.40625 
L 10.984375 69.390625 
L 28.421875 72.90625 
L 38.28125 72.90625 
L 38.28125 8.296875 
L 54.390625 8.296875 
L 54.390625 0 
L 12.40625 0 
z
" id="DejaVuSans-31"/>
      </defs>
      <g transform="translate(125.84275 322.182437)scale(0.1 -0.1)">
       <use xlink:href="#DejaVuSans-31"/>
      </g>
     </g>
    </g>
    <g id="xtick_3">
     <g id="line2d_3">
      <g>
       <use style="stroke:#000000;stroke-width:0.8;" x="200.448" xlink:href="#m115539b5f2" y="307.584"/>
      </g>
     </g>
     <g id="text_3">
      <!-- 2 -->
      <defs>
       <path d="M 19.1875 8.296875 
L 53.609375 8.296875 
L 53.609375 0 
L 7.328125 0 
L 7.328125 8.296875 
Q 12.9375 14.109375 22.625 23.890625 
Q 32.328125 33.6875 34.8125 36.53125 
Q 39.546875 41.84375 41.421875 45.53125 
Q 43.3125 49.21875 43.3125 52.78125 
Q 43.3125 58.59375 39.234375 62.25 
Q 35.15625 65.921875 28.609375 65.921875 
Q 23.96875 65.921875 18.8125 64.3125 
Q 13.671875 62.703125 7.8125 59.421875 
L 7.8125 69.390625 
Q 13.765625 71.78125 18.9375 73 
Q 24.125 74.21875 28.421875 74.21875 
Q 39.75 74.21875 46.484375 68.546875 
Q 53.21875 62.890625 53.21875 53.421875 
Q 53.21875 48.921875 51.53125 44.890625 
Q 49.859375 40.875 45.40625 35.40625 
Q 44.1875 33.984375 37.640625 27.21875 
Q 31.109375 20.453125 19.1875 8.296875 
" id="DejaVuSans-32"/>
      </defs>
      <g transform="translate(197.26675 322.182437)scale(0.1 -0.1)">
       <use xlink:href="#DejaVuSans-32"/>
      </g>
     </g>
    </g>
    <g id="xtick_4">
     <g id="line2d_4">
      <g>
       <use style="stroke:#000000;stroke-width:0.8;" x="271.872" xlink:href="#m115539b5f2" y="307.584"/>
      </g>
     </g>
     <g id="text_4">
      <!-- 3 -->
      <defs>
       <path d="M 40.578125 39.3125 
Q 47.65625 37.796875 51.625 33 
Q 55.609375 28.21875 55.609375 21.1875 
Q 55.609375 10.40625 48.1875 4.484375 
Q 40.765625 -1.421875 27.09375 -1.421875 
Q 22.515625 -1.421875 17.65625 -0.515625 
Q 12.796875 0.390625 7.625 2.203125 
L 7.625 11.71875 
Q 11.71875 9.328125 16.59375 8.109375 
Q 21.484375 6.890625 26.8125 6.890625 
Q 36.078125 6.890625 40.9375 10.546875 
Q 45.796875 14.203125 45.796875 21.1875 
Q 45.796875 27.640625 41.28125 31.265625 
Q 36.765625 34.90625 28.71875 34.90625 
L 20.21875 34.90625 
L 20.21875 43.015625 
L 29.109375 43.015625 
Q 36.375 43.015625 40.234375 45.921875 
Q 44.09375 48.828125 44.09375 54.296875 
Q 44.09375 59.90625 40.109375 62.90625 
Q 36.140625 65.921875 28.71875 65.921875 
Q 24.65625 65.921875 20.015625 65.03125 
Q 15.375 64.15625 9.8125 62.3125 
L 9.8125 71.09375 
Q 15.4375 72.65625 20.34375 73.4375 
Q 25.25 74.21875 29.59375 74.21875 
Q 40.828125 74.21875 47.359375 69.109375 
Q 53.90625 64.015625 53.90625 55.328125 
Q 53.90625 49.265625 50.4375 45.09375 
Q 46.96875 40.921875 40.578125 39.3125 
" id="DejaVuSans-33"/>
      </defs>
      <g transform="translate(268.69075 322.182437)scale(0.1 -0.1)">
       <use xlink:href="#DejaVuSans-33"/>
      </g>
     </g>
    </g>
    <g id="xtick_5">
     <g id="line2d_5">
      <g>
       <use style="stroke:#000000;stroke-width:0.8;" x="343.296" xlink:href="#m115539b5f2" y="307.584"/>
      </g>
     </g>
     <g id="text_5">
      <!-- 4 -->
      <defs>
       <path d="M 37.796875 64.3125 
L 12.890625 25.390625 
L 37.796875 25.390625 
z
M 35.203125 72.90625 
L 47.609375 72.90625 
L 47.609375 25.390625 
L 58.015625 25.390625 
L 58.015625 17.1875 
L 47.609375 17.1875 
L 47.609375 0 
L 37.796875 0 
L 37.796875 17.1875 
L 4.890625 17.1875 
L 4.890625 26.703125 
z
" id="DejaVuSans-34"/>
      </defs>
      <g transform="translate(340.11475 322.182437)scale(0.1 -0.1)">
       <use xlink:href="#DejaVuSans-34"/>
      </g>
     </g>
    </g>
    <g id="xtick_6">
     <g id="line2d_6">
      <g>
       <use style="stroke:#000000;stroke-width:0.8;" x="414.72" xlink:href="#m115539b5f2" y="307.584"/>
      </g>
     </g>
     <g id="text_6">
      <!-- 5 -->
      <defs>
       <path d="M 10.796875 72.90625 
L 49.515625 72.90625 
L 49.515625 64.59375 
L 19.828125 64.59375 
L 19.828125 46.734375 
Q 21.96875 47.46875 24.109375 47.828125 
Q 26.265625 48.1875 28.421875 48.1875 
Q 40.625 48.1875 47.75 41.5 
Q 54.890625 34.8125 54.890625 23.390625 
Q 54.890625 11.625 47.5625 5.09375 
Q 40.234375 -1.421875 26.90625 -1.421875 
Q 22.3125 -1.421875 17.546875 -0.640625 
Q 12.796875 0.140625 7.71875 1.703125 
L 7.71875 11.625 
Q 12.109375 9.234375 16.796875 8.0625 
Q 21.484375 6.890625 26.703125 6.890625 
Q 35.15625 6.890625 40.078125 11.328125 
Q 45.015625 15.765625 45.015625 23.390625 
Q 45.015625 31 40.078125 35.4375 
Q 35.15625 39.890625 26.703125 39.890625 
Q 22.75 39.890625 18.8125 39.015625 
Q 14.890625 38.140625 10.796875 36.28125 
z
" id="DejaVuSans-35"/>
      </defs>
      <g transform="translate(411.53875 322.182437)scale(0.1 -0.1)">
       <use xlink:href="#DejaVuSans-35"/>
      </g>
     </g>
    </g>
   </g>
   <g id="matplotlib.axis_2">
    <g id="ytick_1">
     <g id="line2d_7">
      <defs>
       <path d="M 0 0 
L -3.5 0 
" id="meb7793eb90" style="stroke:#000000;stroke-width:0.8;"/>
      </defs>
      <g>
       <use style="stroke:#000000;stroke-width:0.8;" x="57.6" xlink:href="#meb7793eb90" y="283.474824"/>
      </g>
     </g>
     <g id="text_7">
      <!-- −0.2 -->
      <defs>
       <path d="M 10.59375 35.5 
L 73.1875 35.5 
L 73.1875 27.203125 
L 10.59375 27.203125 
z
" id="DejaVuSans-2212"/>
       <path d="M 10.6875 12.40625 
L 21 12.40625 
L 21 0 
L 10.6875 0 
z
" id="DejaVuSans-2e"/>
      </defs>
      <g transform="translate(26.317187 287.274043)scale(0.1 -0.1)">
       <use xlink:href="#DejaVuSans-2212"/>
       <use x="83.789062" xlink:href="#DejaVuSans-30"/>
       <use x="147.412109" xlink:href="#DejaVuSans-2e"/>
       <use x="179.199219" xlink:href="#DejaVuSans-32"/>
      </g>
     </g>
    </g>
    <g id="ytick_2">
     <g id="line2d_8">
      <g>
       <use style="stroke:#000000;stroke-width:0.8;" x="57.6" xlink:href="#meb7793eb90" y="248.140924"/>
      </g>
     </g>
     <g id="text_8">
      <!-- 0.0 -->
      <g transform="translate(34.696875 251.940142)scale(0.1 -0.1)">
       <use xlink:href="#DejaVuSans-30"/>
       <use x="63.623047" xlink:href="#DejaVuSans-2e"/>
       <use x="95.410156" xlink:href="#DejaVuSans-30"/>
      </g>
     </g>
    </g>
    <g id="ytick_3">
     <g id="line2d_9">
      <g>
       <use style="stroke:#000000;stroke-width:0.8;" x="57.6" xlink:href="#meb7793eb90" y="212.807023"/>
      </g>
     </g>
     <g id="text_9">
      <!-- 0.2 -->
      <g transform="translate(34.696875 216.606242)scale(0.1 -0.1)">
       <use xlink:href="#DejaVuSans-30"/>
       <use x="63.623047" xlink:href="#DejaVuSans-2e"/>
       <use x="95.410156" xlink:href="#DejaVuSans-32"/>
      </g>
     </g>
    </g>
    <g id="ytick_4">
     <g id="line2d_10">
      <g>
       <use style="stroke:#000000;stroke-width:0.8;" x="57.6" xlink:href="#meb7793eb90" y="177.473122"/>
      </g>
     </g>
     <g id="text_10">
      <!-- 0.4 -->
      <g transform="translate(34.696875 181.272341)scale(0.1 -0.1)">
       <use xlink:href="#DejaVuSans-30"/>
       <use x="63.623047" xlink:href="#DejaVuSans-2e"/>
       <use x="95.410156" xlink:href="#DejaVuSans-34"/>
      </g>
     </g>
    </g>
    <g id="ytick_5">
     <g id="line2d_11">
      <g>
       <use style="stroke:#000000;stroke-width:0.8;" x="57.6" xlink:href="#meb7793eb90" y="142.139221"/>
      </g>
     </g>
     <g id="text_11">
      <!-- 0.6 -->
      <defs>
       <path d="M 33.015625 40.375 
Q 26.375 40.375 22.484375 35.828125 
Q 18.609375 31.296875 18.609375 23.390625 
Q 18.609375 15.53125 22.484375 10.953125 
Q 26.375 6.390625 33.015625 6.390625 
Q 39.65625 6.390625 43.53125 10.953125 
Q 47.40625 15.53125 47.40625 23.390625 
Q 47.40625 31.296875 43.53125 35.828125 
Q 39.65625 40.375 33.015625 40.375 
M 52.59375 71.296875 
L 52.59375 62.3125 
Q 48.875 64.0625 45.09375 64.984375 
Q 41.3125 65.921875 37.59375 65.921875 
Q 27.828125 65.921875 22.671875 59.328125 
Q 17.53125 52.734375 16.796875 39.40625 
Q 19.671875 43.65625 24.015625 45.921875 
Q 28.375 48.1875 33.59375 48.1875 
Q 44.578125 48.1875 50.953125 41.515625 
Q 57.328125 34.859375 57.328125 23.390625 
Q 57.328125 12.15625 50.6875 5.359375 
Q 44.046875 -1.421875 33.015625 -1.421875 
Q 20.359375 -1.421875 13.671875 8.265625 
Q 6.984375 17.96875 6.984375 36.375 
Q 6.984375 53.65625 15.1875 63.9375 
Q 23.390625 74.21875 37.203125 74.21875 
Q 40.921875 74.21875 44.703125 73.484375 
Q 48.484375 72.75 52.59375 71.296875 
" id="DejaVuSans-36"/>
      </defs>
      <g transform="translate(34.696875 145.93844)scale(0.1 -0.1)">
       <use xlink:href="#DejaVuSans-30"/>
       <use x="63.623047" xlink:href="#DejaVuSans-2e"/>
       <use x="95.410156" xlink:href="#DejaVuSans-36"/>
      </g>
     </g>
    </g>
    <g id="ytick_6">
     <g id="line2d_12">
      <g>
       <use style="stroke:#000000;stroke-width:0.8;" x="57.6" xlink:href="#meb7793eb90" y="106.805321"/>
      </g>
     </g>
     <g id="text_12">
      <!-- 0.8 -->
      <defs>
       <path d="M 31.78125 34.625 
Q 24.75 34.625 20.71875 30.859375 
Q 16.703125 27.09375 16.703125 20.515625 
Q 16.703125 13.921875 20.71875 10.15625 
Q 24.75 6.390625 31.78125 6.390625 
Q 38.8125 6.390625 42.859375 10.171875 
Q 46.921875 13.96875 46.921875 20.515625 
Q 46.921875 27.09375 42.890625 30.859375 
Q 38.875 34.625 31.78125 34.625 
M 21.921875 38.8125 
Q 15.578125 40.375 12.03125 44.71875 
Q 8.5 49.078125 8.5 55.328125 
Q 8.5 64.0625 14.71875 69.140625 
Q 20.953125 74.21875 31.78125 74.21875 
Q 42.671875 74.21875 48.875 69.140625 
Q 55.078125 64.0625 55.078125 55.328125 
Q 55.078125 49.078125 51.53125 44.71875 
Q 48 40.375 41.703125 38.8125 
Q 48.828125 37.15625 52.796875 32.3125 
Q 56.78125 27.484375 56.78125 20.515625 
Q 56.78125 9.90625 50.3125 4.234375 
Q 43.84375 -1.421875 31.78125 -1.421875 
Q 19.734375 -1.421875 13.25 4.234375 
Q 6.78125 9.90625 6.78125 20.515625 
Q 6.78125 27.484375 10.78125 32.3125 
Q 14.796875 37.15625 21.921875 38.8125 
M 18.3125 54.390625 
Q 18.3125 48.734375 21.84375 45.5625 
Q 25.390625 42.390625 31.78125 42.390625 
Q 38.140625 42.390625 41.71875 45.5625 
Q 45.3125 48.734375 45.3125 54.390625 
Q 45.3125 60.0625 41.71875 63.234375 
Q 38.140625 66.40625 31.78125 66.40625 
Q 25.390625 66.40625 21.84375 63.234375 
Q 18.3125 60.0625 18.3125 54.390625 
" id="DejaVuSans-38"/>
      </defs>
      <g transform="translate(34.696875 110.604539)scale(0.1 -0.1)">
       <use xlink:href="#DejaVuSans-30"/>
       <use x="63.623047" xlink:href="#DejaVuSans-2e"/>
       <use x="95.410156" xlink:href="#DejaVuSans-38"/>
      </g>
     </g>
    </g>
    <g id="ytick_7">
     <g id="line2d_13">
      <g>
       <use style="stroke:#000000;stroke-width:0.8;" x="57.6" xlink:href="#meb7793eb90" y="71.47142"/>
      </g>
     </g>
     <g id="text_13">
      <!-- 1.0 -->
      <g transform="translate(34.696875 75.270639)scale(0.1 -0.1)">
       <use xlink:href="#DejaVuSans-31"/>
       <use x="63.623047" xlink:href="#DejaVuSans-2e"/>
       <use x="95.410156" xlink:href="#DejaVuSans-30"/>
      </g>
     </g>
    </g>
   </g>
   <g id="line2d_14">
    <path clip-path="url(#pa38eaaf8f1)" d="M 57.6 71.47142 
L 93.312 71.47142 
L 93.312 248.140924 
L 93.400148 248.140924 
L 129.024 248.140924 
L 129.024 71.47142 
L 129.123029 71.47142 
L 164.736 71.47142 
L 164.736 248.140924 
L 164.82415 248.140924 
L 200.448 248.140924 
L 200.448 71.47142 
L 200.546369 71.47142 
L 236.16 71.47142 
L 236.16 248.140924 
L 236.24815 248.140924 
L 271.872 248.140924 
L 271.872 71.47142 
L 271.970379 71.47142 
L 307.584 71.47142 
L 307.584 248.140924 
L 307.67215 248.140924 
L 343.296 248.140924 
L 343.296 71.47142 
L 343.394381 71.47142 
L 379.008 71.47142 
L 379.008 248.140924 
L 379.096149 248.140924 
L 414.72 248.140924 
L 414.72 71.47142 
L 414.72 71.47142 
" style="fill:none;stroke:#0000ff;stroke-linecap:square;stroke-width:1.5;"/>
   </g>
   <g id="line2d_15">
    <path clip-path="url(#pa38eaaf8f1)" d="M 57.6 248.140924 
L 57.654462 248.038737 
L 57.763504 247.23028 
L 57.958839 243.854585 
L 58.25372 234.492431 
L 58.713635 211.581653 
L 59.5688 154.335823 
L 60.623778 88.448336 
L 61.330016 62.044075 
L 61.691123 55.522412 
L 61.968131 53.635168 
L 62.058413 53.568 
L 62.238976 54.187016 
L 62.492587 56.608543 
L 62.982576 65.445797 
L 63.683416 83.757256 
L 64.795289 112.369575 
L 65.36654 121.749257 
L 65.789093 125.41753 
L 66.00037 126.19821 
L 66.211646 126.31207 
L 66.422923 125.804563 
L 66.634199 124.733625 
L 67.011195 121.638841 
L 67.765187 112.509291 
L 68.896174 98.222822 
L 69.650166 92.199402 
L 70.027162 90.71627 
L 70.297743 90.281527 
L 70.568324 90.336774 
L 70.838905 90.83155 
L 71.380067 92.875455 
L 72.19181 97.423842 
L 73.009109 101.982507 
L 73.417758 103.749103 
L 73.826407 105.01392 
L 74.235057 105.732788 
L 74.492605 105.908921 
L 74.750152 105.884756 
L 75.0077 105.679235 
L 75.522796 104.82481 
L 76.464648 102.416401 
L 77.318163 100.286608 
L 77.74492 99.50139 
L 78.459676 98.771795 
L 79.035672 98.720785 
L 79.611668 99.063402 
L 80.475663 100.010316 
L 81.774648 101.432125 
L 82.640637 101.888922 
L 83.247442 101.916812 
L 84.157649 101.611577 
L 86.132355 100.634646 
L 87.044893 100.463507 
L 88.185758 100.564712 
L 90.847778 101.101224 
L 92.368932 101.078156 
L 93.365429 101.069571 
L 93.469585 101.805606 
L 93.67004 105.203306 
L 94.076814 119.244708 
L 94.693437 154.087111 
L 96.315012 259.515075 
L 96.916381 283.603216 
L 97.317293 292.404064 
L 97.517749 294.632012 
L 97.718205 295.488 
L 97.918662 295.062562 
L 98.119118 293.468233 
L 98.420001 289.169495 
L 99.021768 275.575458 
L 100.526184 236.316603 
L 101.127951 226.745686 
L 101.647933 223.032758 
L 101.867032 222.717408 
L 102.086131 223.084791 
L 102.459241 225.101829 
L 103.205461 232.953492 
L 104.61843 250.922573 
L 105.138359 255.472467 
L 105.658289 258.107645 
L 105.918254 258.686357 
L 106.178218 258.799495 
L 106.438183 258.487132 
L 106.958112 256.804838 
L 107.738007 252.633556 
L 108.777866 246.808299 
L 109.297795 244.724201 
L 109.817725 243.489062 
L 110.077689 243.204284 
L 110.337654 243.131382 
L 110.597619 243.253601 
L 111.117548 243.988414 
L 111.897442 245.873335 
L 113.197266 249.108311 
L 113.717196 249.913706 
L 114.237125 250.319338 
L 114.757054 250.3384 
L 115.276984 250.037152 
L 116.056878 249.208607 
L 117.356702 247.733616 
L 118.136596 247.231664 
L 118.656526 247.122582 
L 119.43642 247.257555 
L 120.476279 247.769951 
L 121.776102 248.401712 
L 122.555997 248.58072 
L 123.595855 248.547752 
L 127.597569 247.943893 
L 129.088572 247.943634 
L 129.172568 247.343616 
L 129.41564 243.040046 
L 129.769087 230.685245 
L 130.313935 200.867717 
L 132.308159 76.732266 
L 132.889745 59.077074 
L 133.121855 55.470817 
L 133.353965 53.754184 
L 133.702841 54.45033 
L 134.051717 58.544193 
L 134.749469 73.881633 
L 136.144974 110.75965 
L 136.842726 122.313203 
L 137.329986 125.902963 
L 137.574616 126.322037 
L 137.696932 126.207143 
L 137.819247 125.889202 
L 138.092245 124.506341 
L 138.638242 119.482096 
L 140.689511 94.804767 
L 141.244382 91.414781 
L 141.600828 90.42251 
L 141.779051 90.261467 
L 141.957274 90.309446 
L 142.289476 90.904388 
L 142.621678 92.055426 
L 143.286081 95.464522 
L 144.614888 102.814581 
L 145.279292 105.075814 
L 145.611494 105.672256 
L 145.856603 105.8826 
L 146.101713 105.908149 
L 146.476962 105.625169 
L 146.852211 105.019165 
L 147.602709 103.200744 
L 148.728456 100.319472 
L 149.300225 99.314003 
L 149.960061 98.741199 
L 150.507603 98.737107 
L 151.055144 99.080294 
L 151.876457 99.980406 
L 153.134619 101.377319 
L 153.973394 101.863543 
L 154.563343 101.927609 
L 155.347729 101.719134 
L 157.807091 100.562897 
L 158.785781 100.46063 
L 160.000243 100.650419 
L 162.175596 101.09304 
L 163.625831 101.092259 
L 164.789433 101.070103 
L 164.893586 101.806101 
L 165.09404 105.203737 
L 165.500816 119.245055 
L 166.117442 154.087468 
L 167.738877 259.507947 
L 168.340178 283.596962 
L 168.741045 292.400164 
L 168.941479 294.629709 
L 169.141913 295.487499 
L 169.342346 295.064003 
L 169.54278 293.471688 
L 169.843646 289.175659 
L 170.445379 275.585713 
L 171.949709 236.326372 
L 172.551442 226.751558 
L 173.071697 223.033594 
L 173.291086 222.717514 
L 173.510476 223.085957 
L 173.883127 225.101025 
L 174.628431 232.940347 
L 176.042427 250.922508 
L 176.563099 255.477598 
L 177.083771 258.112307 
L 177.344107 258.688768 
L 177.604443 258.798562 
L 177.864779 258.482042 
L 178.385451 256.790317 
L 179.166459 252.607112 
L 180.207803 246.780264 
L 180.728475 244.702747 
L 181.249147 243.477899 
L 181.509483 243.199094 
L 181.769819 243.132363 
L 182.030155 243.260678 
L 182.550827 244.006433 
L 183.331835 245.901561 
L 184.37318 248.595975 
L 184.893852 249.578779 
L 185.414524 250.177373 
L 185.935196 250.374389 
L 186.455868 250.213261 
L 186.97654 249.781175 
L 189.319564 247.343869 
L 189.840236 247.150889 
L 190.360908 247.13431 
L 191.141916 247.372273 
L 193.745276 248.546453 
L 194.526284 248.597657 
L 195.567628 248.441064 
L 197.910653 247.96051 
L 199.342988 247.964731 
L 200.501095 247.98875 
L 200.595733 247.35195 
L 200.838113 243.0785 
L 201.19133 230.762519 
L 201.736179 200.979088 
L 203.728962 76.863085 
L 204.31178 59.115868 
L 204.545272 55.477419 
L 204.778763 53.75135 
L 205.131068 54.480912 
L 205.483373 58.666787 
L 206.187982 74.266479 
L 207.597201 111.360692 
L 208.30181 122.696593 
L 208.654115 125.470328 
L 208.865118 126.202358 
L 209.076121 126.272974 
L 209.287124 125.72783 
L 209.605673 123.870226 
L 210.242771 117.346596 
L 211.835516 97.325254 
L 212.472614 92.358832 
L 212.791163 90.970792 
L 213.109712 90.317618 
L 213.428261 90.351201 
L 213.74681 90.990358 
L 214.383909 93.645448 
L 215.976654 102.531949 
L 216.478945 104.465556 
L 216.83747 105.359917 
L 217.195995 105.832454 
L 217.55452 105.902084 
L 217.913045 105.613771 
L 218.27157 105.032564 
L 218.98862 103.308331 
L 220.064196 100.514673 
L 220.781246 99.238326 
L 221.139771 98.875949 
L 221.498296 98.704696 
L 221.856821 98.712429 
L 222.215346 98.875903 
L 222.932396 99.539951 
L 224.725021 101.51018 
L 225.442071 101.877358 
L 226.159121 101.908402 
L 226.876171 101.674571 
L 229.354514 100.533917 
L 230.16136 100.459026 
L 231.371628 100.637449 
L 233.669947 101.098894 
L 234.973027 101.098013 
L 236.213432 101.070425 
L 236.317586 101.806433 
L 236.518041 105.204083 
L 236.924816 119.245394 
L 237.541442 154.087733 
L 239.162746 259.501355 
L 239.763985 283.591219 
L 240.164811 292.396604 
L 240.365224 294.627623 
L 240.565637 295.487074 
L 240.766051 295.065365 
L 240.966464 293.474901 
L 241.267314 289.181372 
L 241.869014 275.595209 
L 243.373263 236.335431 
L 243.974963 226.756999 
L 244.495471 223.034351 
L 244.715128 222.717586 
L 244.934786 223.087003 
L 245.306991 225.100064 
L 246.0514 232.927253 
L 247.466413 250.922396 
L 247.987817 255.482625 
L 248.509221 258.116884 
L 248.769923 258.691126 
L 249.030625 258.797624 
L 249.291327 258.477009 
L 249.812731 256.775994 
L 250.594837 252.581069 
L 251.637646 246.752737 
L 252.15905 244.68175 
L 252.680454 243.467074 
L 252.941156 243.194161 
L 253.201858 243.133511 
L 253.46256 243.267827 
L 253.983964 244.024325 
L 254.76607 245.9294 
L 255.808878 248.621771 
L 256.330282 249.597748 
L 256.851686 250.18723 
L 257.37309 250.374429 
L 257.894494 250.204337 
L 258.415898 249.765423 
L 260.762216 247.333779 
L 261.28362 247.147227 
L 261.805024 247.136881 
L 262.587131 247.381935 
L 265.194151 248.550885 
L 265.976257 248.596434 
L 267.019065 248.434762 
L 269.365383 247.957858 
L 270.801136 247.967447 
L 271.925101 247.988729 
L 272.019747 247.351818 
L 272.262138 243.077879 
L 272.615359 230.761261 
L 273.160208 200.977259 
L 275.153017 76.860837 
L 275.735815 59.11518 
L 275.969283 55.477292 
L 276.202751 53.751393 
L 276.555001 54.480426 
L 276.907252 58.66484 
L 277.611752 74.260378 
L 279.020754 111.351258 
L 279.725254 122.690676 
L 280.077505 125.46724 
L 280.288115 126.200496 
L 280.498725 126.274607 
L 280.709335 125.734897 
L 281.02718 123.889098 
L 281.662868 117.394605 
L 283.25209 97.399107 
L 283.887779 92.407915 
L 284.440012 90.435344 
L 284.674401 90.251438 
L 284.90879 90.422618 
L 285.301531 91.403702 
L 286.087014 95.183518 
L 287.265237 101.886738 
L 288.05072 104.882374 
L 288.443461 105.649211 
L 288.689663 105.873876 
L 288.935865 105.91134 
L 289.182067 105.776505 
L 289.630168 105.155208 
L 290.401956 103.335338 
L 291.696703 100.074716 
L 292.344077 99.07639 
L 292.667764 98.808318 
L 292.991451 98.694245 
L 293.315137 98.723098 
L 293.962511 99.131951 
L 294.933572 100.236242 
L 296.069171 101.448185 
L 296.904357 101.886018 
L 297.59828 101.904941 
L 298.292203 101.677552 
L 300.645716 100.565178 
L 301.488774 100.458372 
L 302.753361 100.627823 
L 305.074435 101.097124 
L 306.364822 101.100088 
L 307.637432 101.070352 
L 307.741586 101.806371 
L 307.942041 105.20404 
L 308.348816 119.245382 
L 308.965441 154.08774 
L 310.586714 259.499837 
L 311.187939 283.58992 
L 311.588755 292.395825 
L 311.789164 294.627192 
L 311.989572 295.487034 
L 312.18998 295.065746 
L 312.390388 293.475716 
L 312.691234 289.182769 
L 313.292927 275.597482 
L 314.797157 236.337554 
L 315.398849 226.758258 
L 315.919416 223.034502 
L 316.139137 222.717573 
L 316.358857 223.087219 
L 316.730953 225.099777 
L 317.475144 232.923991 
L 318.890408 250.922366 
L 319.411993 255.483869 
L 319.933577 258.118019 
L 320.194369 258.691715 
L 320.455161 258.797402 
L 320.715954 258.475777 
L 321.237538 256.772472 
L 322.019915 252.574659 
L 323.063084 246.745969 
L 323.584668 244.676595 
L 324.106252 243.464429 
L 324.367045 243.192969 
L 324.627837 243.133816 
L 324.888629 243.26961 
L 325.410213 244.028749 
L 326.19259 245.936259 
L 327.235759 248.628103 
L 327.757343 249.602389 
L 328.278928 250.189621 
L 328.800512 250.374402 
L 329.322096 250.202108 
L 329.843681 249.761524 
L 332.190811 247.331328 
L 332.712395 247.146361 
L 333.23398 247.137547 
L 334.016356 247.384334 
L 336.624278 248.551948 
L 337.406655 248.596107 
L 338.449824 248.433199 
L 340.796954 247.957225 
L 342.233553 247.968129 
L 343.349102 247.988726 
L 343.443748 247.351802 
L 343.686141 243.077802 
L 344.039363 230.761107 
L 344.584212 200.97704 
L 346.577025 76.860509 
L 347.159819 59.115082 
L 347.393283 55.477286 
L 347.626747 53.751408 
L 347.978979 54.48026 
L 348.33121 58.66417 
L 349.035673 74.258271 
L 350.444599 111.347992 
L 351.149062 122.688626 
L 351.501294 125.466169 
L 351.711768 126.199847 
L 351.922242 126.275164 
L 352.132717 125.737331 
L 352.450363 123.895266 
L 353.085656 117.409507 
L 354.673887 97.421078 
L 355.30918 92.422462 
L 355.860134 90.441516 
L 356.093442 90.251518 
L 356.326749 90.414012 
L 356.722367 91.392759 
L 357.513601 95.19845 
L 358.700453 101.941438 
L 359.491687 104.925726 
L 359.887304 105.674183 
L 360.139629 105.8861 
L 360.391953 105.902846 
L 360.644278 105.741095 
L 361.136405 104.997343 
L 361.839488 103.299538 
L 362.894113 100.556057 
L 363.42705 99.528765 
L 363.959987 98.901124 
L 364.26392 98.731686 
L 364.567853 98.693201 
L 365.175718 98.956945 
L 365.783584 99.545148 
L 367.244605 101.230592 
L 368.197427 101.84675 
L 369.004626 101.906706 
L 369.811825 101.632466 
L 371.829822 100.635815 
L 372.63702 100.47061 
L 373.444219 100.492494 
L 375.058617 100.845435 
L 376.545105 101.100628 
L 377.851899 101.095457 
L 379.061431 101.070387 
L 379.165586 101.806421 
L 379.366041 105.204118 
L 379.772816 119.245497 
L 380.389441 154.087862 
L 382.010617 259.495045 
L 382.611796 283.585776 
L 383.012583 292.393291 
L 383.212976 294.625743 
L 383.413369 295.486805 
L 383.613762 295.066828 
L 383.814155 293.478154 
L 384.114989 289.187038 
L 384.716657 275.604512 
L 386.220828 236.344205 
L 386.822496 226.762233 
L 387.343247 223.035024 
L 387.563164 222.717586 
L 387.783081 223.087937 
L 388.154836 225.098919 
L 388.898346 232.913853 
L 390.314391 250.922227 
L 390.836536 255.487687 
L 391.358681 258.121508 
L 391.619753 258.69351 
L 391.880825 258.796678 
L 392.141898 258.471922 
L 392.664042 256.761515 
L 393.447259 252.554758 
L 394.491549 246.724998 
L 395.013693 244.660656 
L 395.535838 243.456295 
L 395.79691 243.189348 
L 396.057983 243.134847 
L 396.319055 243.275223 
L 396.8412 244.042546 
L 397.624417 245.957573 
L 398.668706 248.647702 
L 399.190851 249.616709 
L 399.712996 250.196941 
L 400.23514 250.374215 
L 400.757285 250.195101 
L 401.27943 249.749358 
L 403.368009 247.482966 
L 403.890153 247.210733 
L 404.412298 247.121185 
L 405.195515 247.280885 
L 406.500877 247.952876 
L 407.545166 248.426274 
L 408.328383 248.588251 
L 409.372673 248.534828 
L 413.027686 247.934086 
L 414.72 248.079798 
L 414.72 248.079798 
" style="fill:none;stroke:#ff0000;stroke-linecap:square;stroke-width:1.5;"/>
   </g>
   <g id="patch_3">
    <path d="M 57.6 307.584 
L 57.6 41.472 
" style="fill:none;stroke:#000000;stroke-linecap:square;stroke-linejoin:miter;stroke-width:0.8;"/>
   </g>
   <g id="patch_4">
    <path d="M 414.72 307.584 
L 414.72 41.472 
" style="fill:none;stroke:#000000;stroke-linecap:square;stroke-linejoin:miter;stroke-width:0.8;"/>
   </g>
   <g id="patch_5">
    <path d="M 57.6 307.584 
L 414.72 307.584 
" style="fill:none;stroke:#000000;stroke-linecap:square;stroke-linejoin:miter;stroke-width:0.8;"/>
   </g>
   <g id="patch_6">
    <path d="M 57.6 41.472 
L 414.72 41.472 
" style="fill:none;stroke:#000000;stroke-linecap:square;stroke-linejoin:miter;stroke-width:0.8;"/>
   </g>
  </g>
 </g>
 <defs>
  <clipPath id="pa38eaaf8f1">
   <rect height="266.112" width="357.12" x="57.6" y="41.472"/>
  </clipPath>
 </defs>
</svg>
